<mxfile host="app.diagrams.net" modified="2023-05-10T18:38:09.656Z" agent="Mozilla/5.0 (Windows NT 10.0; Win64; x64) AppleWebKit/537.36 (KHTML, like Gecko) Chrome/113.0.0.0 Safari/537.36" etag="4MIlhBLO0WD_C3TbQHlx" version="21.2.9" type="device">
  <diagram id="jppvAU3KkT2IqqFwT-8U" name="Trang-1">
    <mxGraphModel dx="8080" dy="2627" grid="1" gridSize="10" guides="1" tooltips="1" connect="1" arrows="1" fold="1" page="1" pageScale="1" pageWidth="3300" pageHeight="4681" background="none" math="0" shadow="0">
      <root>
        <mxCell id="0" />
        <mxCell id="1" parent="0" />
        <mxCell id="4Maw-LyCIN15uIDDzg4y-1" value="movie" style="swimlane;childLayout=stackLayout;horizontal=1;startSize=30;horizontalStack=0;rounded=1;fontSize=35;fontStyle=0;strokeWidth=5;resizeParent=0;resizeLast=1;shadow=1;dashed=0;align=center;" parent="1" vertex="1">
          <mxGeometry x="760" y="3950" width="460" height="590" as="geometry" />
        </mxCell>
        <mxCell id="4Maw-LyCIN15uIDDzg4y-2" value="+ID_movie: varchar&#xa;+Name: nvarchar&#xa;+Time: int &#xa;+Age_limit: int&#xa;+Opening_date: date&#xa;+Language: nvarchar&#xa;+Country: nvarchar&#xa;+Director: nvarchar&#xa;+Content: nvarchar;&#xa;+TypeMovie: nvarchar&#xa;+Producer: nvarchar&#xa;+IsShowing: bit&#xa;+ImageLink: varchar" style="align=left;strokeColor=none;fillColor=none;spacingLeft=4;fontSize=35;verticalAlign=top;resizable=0;rotatable=0;part=1;shadow=1;strokeWidth=5;" parent="4Maw-LyCIN15uIDDzg4y-1" vertex="1">
          <mxGeometry y="30" width="460" height="560" as="geometry" />
        </mxCell>
        <mxCell id="4Maw-LyCIN15uIDDzg4y-7" value="showtime" style="swimlane;childLayout=stackLayout;horizontal=1;startSize=30;horizontalStack=0;rounded=1;fontSize=30;fontStyle=0;strokeWidth=5;resizeParent=0;resizeLast=1;shadow=0;dashed=0;align=center;" parent="1" vertex="1">
          <mxGeometry x="755" y="3310" width="470" height="300" as="geometry" />
        </mxCell>
        <mxCell id="4Maw-LyCIN15uIDDzg4y-8" value="+ID_ShoTime: varchar&#xa;+StartTime: date&#xa;+ID_Movie: varchar&#xa;+ID_Room: varchar&#xa;+MovieFormat: varchar&#xa;+IsDelete: bit&#xa;+TicketPrice: int" style="align=left;strokeColor=none;fillColor=none;spacingLeft=4;fontSize=30;verticalAlign=top;resizable=0;rotatable=0;part=1;shadow=1;strokeWidth=5;" parent="4Maw-LyCIN15uIDDzg4y-7" vertex="1">
          <mxGeometry y="30" width="470" height="270" as="geometry" />
        </mxCell>
        <mxCell id="4Maw-LyCIN15uIDDzg4y-11" value="room" style="swimlane;childLayout=stackLayout;horizontal=1;startSize=30;horizontalStack=0;rounded=1;fontSize=30;fontStyle=0;strokeWidth=5;resizeParent=0;resizeLast=1;shadow=0;dashed=0;align=center;" parent="1" vertex="1">
          <mxGeometry x="160" y="3340" width="352" height="250" as="geometry" />
        </mxCell>
        <mxCell id="4Maw-LyCIN15uIDDzg4y-12" value="+ID_Room: varchar&#xa;+RowOfChair: int&#xa;+ColumOfChair: int&#xa;+NumOfVIPChair: int&#xa;+NumOfCoupleChair:int&#xa;+Quantity: int" style="align=left;strokeColor=none;fillColor=none;spacingLeft=4;fontSize=30;verticalAlign=top;resizable=0;rotatable=0;part=1;shadow=1;strokeWidth=5;" parent="4Maw-LyCIN15uIDDzg4y-11" vertex="1">
          <mxGeometry y="30" width="352" height="220" as="geometry" />
        </mxCell>
        <mxCell id="4Maw-LyCIN15uIDDzg4y-18" value="ticket_sale" style="swimlane;childLayout=stackLayout;horizontal=1;startSize=45;horizontalStack=0;rounded=1;fontSize=30;fontStyle=0;strokeWidth=5;resizeParent=0;resizeLast=1;shadow=0;dashed=0;align=center;" parent="1" vertex="1">
          <mxGeometry x="805" y="2745" width="370" height="270" as="geometry" />
        </mxCell>
        <mxCell id="4Maw-LyCIN15uIDDzg4y-19" value="+ID_ticket_sale: varchar&#xa;+sale_date: datetime&#xa;+total: int&#xa;+ID_Showtime: varchar&#xa;+ID_Customer: varchar&#xa;+ID_Staff: varchar" style="align=left;strokeColor=none;fillColor=none;spacingLeft=4;fontSize=30;verticalAlign=top;resizable=0;rotatable=0;part=1;shadow=1;strokeWidth=5;" parent="4Maw-LyCIN15uIDDzg4y-18" vertex="1">
          <mxGeometry y="45" width="370" height="225" as="geometry" />
        </mxCell>
        <mxCell id="4Maw-LyCIN15uIDDzg4y-22" value="seat" style="swimlane;childLayout=stackLayout;horizontal=1;startSize=30;horizontalStack=0;rounded=1;fontSize=30;fontStyle=0;strokeWidth=5;resizeParent=0;resizeLast=1;shadow=0;dashed=0;align=center;" parent="1" vertex="1">
          <mxGeometry x="157" y="2145" width="366" height="270" as="geometry" />
        </mxCell>
        <mxCell id="4Maw-LyCIN15uIDDzg4y-23" value="+ID_Seat: varchar&#xa;+Colum: int &#xa;+Row: int&#xa;+IsChoosen: bit&#xa;+ID_room: varchar&#xa;+ID_TypeSeat: varchar" style="align=left;strokeColor=none;fillColor=none;spacingLeft=4;fontSize=30;verticalAlign=top;resizable=0;rotatable=0;part=1;shadow=1;strokeWidth=5;" parent="4Maw-LyCIN15uIDDzg4y-22" vertex="1">
          <mxGeometry y="30" width="366" height="240" as="geometry" />
        </mxCell>
        <mxCell id="4Maw-LyCIN15uIDDzg4y-25" value="TypeOfSeat" style="swimlane;childLayout=stackLayout;horizontal=1;startSize=40;horizontalStack=0;rounded=1;fontSize=30;fontStyle=0;strokeWidth=5;resizeParent=0;resizeLast=1;shadow=0;dashed=0;align=center;" parent="1" vertex="1">
          <mxGeometry x="-590" y="2208.75" width="370" height="162.5" as="geometry" />
        </mxCell>
        <mxCell id="4Maw-LyCIN15uIDDzg4y-26" value="+ID_TypeSeat: varchar&#xa;+NameTypeSeat: nvarchar&#xa;+Surcharge: int" style="align=left;strokeColor=none;fillColor=none;spacingLeft=4;fontSize=30;verticalAlign=top;resizable=0;rotatable=0;part=1;shadow=1;strokeWidth=5;" parent="4Maw-LyCIN15uIDDzg4y-25" vertex="1">
          <mxGeometry y="40" width="370" height="122.5" as="geometry" />
        </mxCell>
        <mxCell id="4Maw-LyCIN15uIDDzg4y-36" value="customer" style="swimlane;childLayout=stackLayout;horizontal=1;startSize=45;horizontalStack=0;rounded=1;fontSize=30;fontStyle=0;strokeWidth=5;resizeParent=0;resizeLast=1;shadow=0;dashed=0;align=center;" parent="1" vertex="1">
          <mxGeometry x="1500" y="2860" width="400" height="515" as="geometry" />
        </mxCell>
        <mxCell id="4Maw-LyCIN15uIDDzg4y-37" value="+ID_customer: varchar [10]&#xa;+name: nvarchar[50]&#xa;+password: varchar[30]&#xa;+phone_number: varchar[10]&#xa;+email: varchar[50]&#xa;+birthDate: date&#xa;+sex: bit&#xa;+isSavePw: bit&#xa;+ID_Person: varchar&#xa;+address: nvarchar&#xa;+account: varchar&#xa;+startDate: date&#xa;+isDelete: bit" style="align=left;strokeColor=none;fillColor=none;spacingLeft=4;fontSize=30;verticalAlign=top;resizable=0;rotatable=0;part=1;shadow=1;strokeWidth=5;" parent="4Maw-LyCIN15uIDDzg4y-36" vertex="1">
          <mxGeometry y="45" width="400" height="470" as="geometry" />
        </mxCell>
        <mxCell id="4Maw-LyCIN15uIDDzg4y-38" value="staff" style="swimlane;childLayout=stackLayout;horizontal=1;startSize=30;horizontalStack=0;rounded=1;fontSize=30;fontStyle=0;strokeWidth=5;resizeParent=0;resizeLast=1;shadow=0;dashed=0;align=center;" parent="1" vertex="1">
          <mxGeometry x="1330" y="1800" width="370" height="620" as="geometry" />
        </mxCell>
        <mxCell id="4Maw-LyCIN15uIDDzg4y-39" value="+ID_Staff: varchar&#xa;+fullName: nvarchar&#xa;+password: varchar&#xa;+ID_Person: varchar&#xa;+phoneNumber: varchar&#xa;+email: varchar&#xa;+address: nvarchar&#xa;+startDate: date&#xa;+sex: bit&#xa;+isWorking: bit&#xa;+taskName: nvarchar&#xa;+isDelete&#xa;+birthDate&#xa;+NumOfDayWorked&#xa;+SalaryDay&#xa;+Account" style="align=left;strokeColor=none;fillColor=none;spacingLeft=4;fontSize=30;verticalAlign=top;resizable=0;rotatable=0;part=1;shadow=1;strokeWidth=5;" parent="4Maw-LyCIN15uIDDzg4y-38" vertex="1">
          <mxGeometry y="30" width="370" height="590" as="geometry" />
        </mxCell>
        <mxCell id="4Maw-LyCIN15uIDDzg4y-44" value="bill" style="swimlane;childLayout=stackLayout;horizontal=1;startSize=30;horizontalStack=0;rounded=1;fontSize=30;fontStyle=0;strokeWidth=5;resizeParent=0;resizeLast=1;shadow=0;dashed=0;align=center;" parent="1" vertex="1">
          <mxGeometry x="2280" y="2180" width="380" height="185" as="geometry" />
        </mxCell>
        <mxCell id="4Maw-LyCIN15uIDDzg4y-45" value="+ID_bill: varchar&#xa;+sale_date: date&#xa;+ID_staff: varchar&#xa;+ID_customer: varchar [10]&#xa;" style="align=left;strokeColor=none;fillColor=none;spacingLeft=4;fontSize=30;verticalAlign=top;resizable=0;rotatable=0;part=1;shadow=1;strokeWidth=5;" parent="4Maw-LyCIN15uIDDzg4y-44" vertex="1">
          <mxGeometry y="30" width="380" height="155" as="geometry" />
        </mxCell>
        <mxCell id="4Maw-LyCIN15uIDDzg4y-47" value="detailed_bill" style="swimlane;childLayout=stackLayout;horizontal=1;startSize=30;horizontalStack=0;rounded=1;fontSize=30;fontStyle=0;strokeWidth=5;resizeParent=0;resizeLast=1;shadow=0;dashed=0;align=center;" parent="1" vertex="1">
          <mxGeometry x="2280" y="2660" width="380" height="220" as="geometry" />
        </mxCell>
        <mxCell id="4Maw-LyCIN15uIDDzg4y-48" value="+ID_detailed_bill: varchar&#xa;+quantity: int&#xa;+total: int&#xa;+ID_bill: varchar&#xa;+ID_detailed_food: varchar&#xa;" style="align=left;strokeColor=none;fillColor=none;spacingLeft=4;fontSize=30;verticalAlign=top;resizable=0;rotatable=0;part=1;shadow=1;strokeWidth=5;" parent="4Maw-LyCIN15uIDDzg4y-47" vertex="1">
          <mxGeometry y="30" width="380" height="190" as="geometry" />
        </mxCell>
        <mxCell id="4Maw-LyCIN15uIDDzg4y-49" value="detailed_food" style="swimlane;childLayout=stackLayout;horizontal=1;startSize=30;horizontalStack=0;rounded=1;fontSize=30;fontStyle=0;strokeWidth=5;resizeParent=0;resizeLast=1;shadow=0;dashed=0;align=center;" parent="1" vertex="1">
          <mxGeometry x="2285" y="3180" width="380" height="230" as="geometry" />
        </mxCell>
        <mxCell id="4Maw-LyCIN15uIDDzg4y-50" value="+ID_detailed_food: varchar&#xa;+unit_price: int&#xa;+is_saling: bit&#xa;+ID_food: varchar&#xa;+quantity: int" style="align=left;strokeColor=none;fillColor=none;spacingLeft=4;fontSize=30;verticalAlign=top;resizable=0;rotatable=0;part=1;shadow=1;strokeWidth=5;" parent="4Maw-LyCIN15uIDDzg4y-49" vertex="1">
          <mxGeometry y="30" width="380" height="200" as="geometry" />
        </mxCell>
        <mxCell id="4Maw-LyCIN15uIDDzg4y-52" value="food" style="swimlane;childLayout=stackLayout;horizontal=1;startSize=30;horizontalStack=0;rounded=1;fontSize=30;fontStyle=0;strokeWidth=5;resizeParent=0;resizeLast=1;shadow=0;dashed=0;align=center;" parent="1" vertex="1">
          <mxGeometry x="2290" y="3790" width="370" height="220" as="geometry" />
        </mxCell>
        <mxCell id="4Maw-LyCIN15uIDDzg4y-53" value="+ID_food: varchar&#xa;+name: nvarchar&#xa;+is_saling:bit&#xa;+ID_type_of_food: varchar&#xa;+ID_size_of_food: varchar " style="align=left;strokeColor=none;fillColor=none;spacingLeft=4;fontSize=30;verticalAlign=top;resizable=0;rotatable=0;part=1;shadow=1;strokeWidth=5;" parent="4Maw-LyCIN15uIDDzg4y-52" vertex="1">
          <mxGeometry y="30" width="370" height="190" as="geometry" />
        </mxCell>
        <mxCell id="4Maw-LyCIN15uIDDzg4y-55" value="type_of_food" style="swimlane;childLayout=stackLayout;horizontal=1;startSize=40;horizontalStack=0;rounded=1;fontSize=30;fontStyle=0;strokeWidth=5;resizeParent=0;resizeLast=1;shadow=0;dashed=0;align=center;" parent="1" vertex="1">
          <mxGeometry x="2290" y="4400" width="370" height="120" as="geometry" />
        </mxCell>
        <mxCell id="4Maw-LyCIN15uIDDzg4y-56" value="+ID_type_of_food: varchar&#xa;+name: nvarchar" style="align=left;strokeColor=none;fillColor=none;spacingLeft=4;fontSize=30;verticalAlign=top;resizable=0;rotatable=0;part=1;shadow=1;strokeWidth=5;" parent="4Maw-LyCIN15uIDDzg4y-55" vertex="1">
          <mxGeometry y="40" width="370" height="80" as="geometry" />
        </mxCell>
        <mxCell id="4Maw-LyCIN15uIDDzg4y-57" value="size_of_food" style="swimlane;childLayout=stackLayout;horizontal=1;startSize=30;horizontalStack=0;rounded=1;fontSize=30;fontStyle=0;strokeWidth=5;resizeParent=0;resizeLast=1;shadow=0;dashed=0;align=center;" parent="1" vertex="1">
          <mxGeometry x="3040" y="3850" width="370" height="120" as="geometry" />
        </mxCell>
        <mxCell id="4Maw-LyCIN15uIDDzg4y-58" value="+ID_size_of_food: varchar&#xa;+name: nvarchar" style="align=left;strokeColor=none;fillColor=none;spacingLeft=4;fontSize=30;verticalAlign=top;resizable=0;rotatable=0;part=1;shadow=1;strokeWidth=5;" parent="4Maw-LyCIN15uIDDzg4y-57" vertex="1">
          <mxGeometry y="30" width="370" height="90" as="geometry" />
        </mxCell>
        <mxCell id="4Maw-LyCIN15uIDDzg4y-59" value="" style="endArrow=none;html=1;rounded=0;fontSize=30;entryX=0.5;entryY=0;entryDx=0;entryDy=0;exitX=0.5;exitY=1;exitDx=0;exitDy=0;strokeWidth=5;" parent="1" source="4Maw-LyCIN15uIDDzg4y-8" target="8up_OKJbOfCuFxiUnoEX-12" edge="1">
          <mxGeometry relative="1" as="geometry">
            <mxPoint x="710" y="3690" as="sourcePoint" />
            <mxPoint x="870" y="3690" as="targetPoint" />
          </mxGeometry>
        </mxCell>
        <mxCell id="4Maw-LyCIN15uIDDzg4y-60" value="" style="endArrow=none;html=1;rounded=0;fontSize=30;entryX=0;entryY=0.5;entryDx=0;entryDy=0;exitX=1;exitY=0.5;exitDx=0;exitDy=0;strokeWidth=5;" parent="1" source="4Maw-LyCIN15uIDDzg4y-12" target="8up_OKJbOfCuFxiUnoEX-10" edge="1">
          <mxGeometry relative="1" as="geometry">
            <mxPoint x="710" y="3490" as="sourcePoint" />
            <mxPoint x="870" y="3490" as="targetPoint" />
          </mxGeometry>
        </mxCell>
        <mxCell id="4Maw-LyCIN15uIDDzg4y-62" value="" style="endArrow=none;html=1;rounded=0;fontSize=30;entryX=0.5;entryY=0;entryDx=0;entryDy=0;exitX=0.5;exitY=1;exitDx=0;exitDy=0;strokeWidth=5;" parent="1" source="4Maw-LyCIN15uIDDzg4y-19" target="8up_OKJbOfCuFxiUnoEX-15" edge="1">
          <mxGeometry relative="1" as="geometry">
            <mxPoint x="710" y="3090" as="sourcePoint" />
            <mxPoint x="870" y="3090" as="targetPoint" />
          </mxGeometry>
        </mxCell>
        <mxCell id="4Maw-LyCIN15uIDDzg4y-65" value="" style="endArrow=none;html=1;rounded=0;fontSize=30;entryX=1;entryY=0.5;entryDx=0;entryDy=0;exitX=0;exitY=0.5;exitDx=0;exitDy=0;strokeWidth=5;" parent="1" source="8up_OKJbOfCuFxiUnoEX-4" target="4Maw-LyCIN15uIDDzg4y-26" edge="1">
          <mxGeometry relative="1" as="geometry">
            <mxPoint x="710" y="2890" as="sourcePoint" />
            <mxPoint x="870" y="2890" as="targetPoint" />
          </mxGeometry>
        </mxCell>
        <mxCell id="4Maw-LyCIN15uIDDzg4y-67" value="" style="endArrow=none;html=1;rounded=0;fontSize=30;exitX=0.5;exitY=0;exitDx=0;exitDy=0;entryX=0.5;entryY=1;entryDx=0;entryDy=0;strokeWidth=5;" parent="1" source="8up_OKJbOfCuFxiUnoEX-8" target="4Maw-LyCIN15uIDDzg4y-23" edge="1">
          <mxGeometry relative="1" as="geometry">
            <mxPoint x="980" y="3210" as="sourcePoint" />
            <mxPoint x="1140" y="3210" as="targetPoint" />
          </mxGeometry>
        </mxCell>
        <mxCell id="4Maw-LyCIN15uIDDzg4y-72" value="" style="endArrow=none;html=1;rounded=0;fontSize=30;exitX=1.002;exitY=0.772;exitDx=0;exitDy=0;strokeWidth=5;exitPerimeter=0;entryX=0;entryY=0.5;entryDx=0;entryDy=0;" parent="1" source="4Maw-LyCIN15uIDDzg4y-39" target="8up_OKJbOfCuFxiUnoEX-22" edge="1">
          <mxGeometry relative="1" as="geometry">
            <mxPoint x="2040" y="2630" as="sourcePoint" />
            <mxPoint x="2280" y="2270" as="targetPoint" />
          </mxGeometry>
        </mxCell>
        <mxCell id="4Maw-LyCIN15uIDDzg4y-73" value="" style="endArrow=none;html=1;rounded=0;fontSize=30;entryX=0.5;entryY=1;entryDx=0;entryDy=0;exitX=0.5;exitY=0;exitDx=0;exitDy=0;strokeWidth=5;" parent="1" source="8up_OKJbOfCuFxiUnoEX-26" target="4Maw-LyCIN15uIDDzg4y-45" edge="1">
          <mxGeometry relative="1" as="geometry">
            <mxPoint x="2040" y="2630" as="sourcePoint" />
            <mxPoint x="2200" y="2630" as="targetPoint" />
          </mxGeometry>
        </mxCell>
        <mxCell id="4Maw-LyCIN15uIDDzg4y-75" value="" style="endArrow=none;html=1;rounded=0;fontSize=30;entryX=0.5;entryY=1;entryDx=0;entryDy=0;exitX=0.5;exitY=0;exitDx=0;exitDy=0;strokeWidth=5;" parent="1" source="8up_OKJbOfCuFxiUnoEX-29" target="4Maw-LyCIN15uIDDzg4y-48" edge="1">
          <mxGeometry relative="1" as="geometry">
            <mxPoint x="2040" y="2920" as="sourcePoint" />
            <mxPoint x="2200" y="2920" as="targetPoint" />
          </mxGeometry>
        </mxCell>
        <mxCell id="4Maw-LyCIN15uIDDzg4y-77" value="" style="endArrow=none;html=1;rounded=0;fontSize=30;entryX=0.5;entryY=1;entryDx=0;entryDy=0;exitX=0.5;exitY=0;exitDx=0;exitDy=0;strokeWidth=5;" parent="1" source="8up_OKJbOfCuFxiUnoEX-31" target="4Maw-LyCIN15uIDDzg4y-50" edge="1">
          <mxGeometry relative="1" as="geometry">
            <mxPoint x="2040" y="2920" as="sourcePoint" />
            <mxPoint x="2200" y="2920" as="targetPoint" />
          </mxGeometry>
        </mxCell>
        <mxCell id="4Maw-LyCIN15uIDDzg4y-78" value="" style="endArrow=none;html=1;rounded=0;fontSize=30;entryX=0;entryY=0.5;entryDx=0;entryDy=0;exitX=1;exitY=0.5;exitDx=0;exitDy=0;strokeWidth=5;" parent="1" source="4Maw-LyCIN15uIDDzg4y-53" target="8up_OKJbOfCuFxiUnoEX-2" edge="1">
          <mxGeometry relative="1" as="geometry">
            <mxPoint x="2040" y="3200" as="sourcePoint" />
            <mxPoint x="2200" y="3200" as="targetPoint" />
          </mxGeometry>
        </mxCell>
        <mxCell id="4Maw-LyCIN15uIDDzg4y-79" value="" style="endArrow=none;html=1;rounded=0;fontSize=30;entryX=0.5;entryY=0;entryDx=0;entryDy=0;exitX=0.5;exitY=1;exitDx=0;exitDy=0;strokeWidth=5;" parent="1" source="4Maw-LyCIN15uIDDzg4y-53" target="8up_OKJbOfCuFxiUnoEX-33" edge="1">
          <mxGeometry relative="1" as="geometry">
            <mxPoint x="2040" y="3200" as="sourcePoint" />
            <mxPoint x="2200" y="3200" as="targetPoint" />
          </mxGeometry>
        </mxCell>
        <mxCell id="B4JVpBIQNOr2g5kr9Hof-3" value="" style="endArrow=none;html=1;rounded=0;fontSize=30;strokeWidth=5;exitX=1;exitY=0.5;exitDx=0;exitDy=0;entryX=0;entryY=0.5;entryDx=0;entryDy=0;" parent="1" source="4Maw-LyCIN15uIDDzg4y-19" target="8up_OKJbOfCuFxiUnoEX-14" edge="1">
          <mxGeometry relative="1" as="geometry">
            <mxPoint x="1320" y="3140" as="sourcePoint" />
            <mxPoint x="1760" y="2890" as="targetPoint" />
          </mxGeometry>
        </mxCell>
        <mxCell id="B4JVpBIQNOr2g5kr9Hof-6" value="detail_ticket_sale" style="swimlane;childLayout=stackLayout;horizontal=1;startSize=40;horizontalStack=0;rounded=1;fontSize=30;fontStyle=0;strokeWidth=5;resizeParent=0;resizeLast=1;shadow=0;dashed=0;align=center;" parent="1" vertex="1">
          <mxGeometry x="805" y="2160" width="370" height="240" as="geometry" />
        </mxCell>
        <mxCell id="B4JVpBIQNOr2g5kr9Hof-7" value="+ID_TicketSale: varchar&#xa;+ID_Seat: varchar" style="align=left;strokeColor=none;fillColor=none;spacingLeft=4;fontSize=30;verticalAlign=top;resizable=0;rotatable=0;part=1;shadow=1;strokeWidth=5;" parent="B4JVpBIQNOr2g5kr9Hof-6" vertex="1">
          <mxGeometry y="40" width="370" height="200" as="geometry" />
        </mxCell>
        <mxCell id="B4JVpBIQNOr2g5kr9Hof-11" value="" style="endArrow=none;html=1;rounded=0;fontSize=30;strokeWidth=5;entryX=0.5;entryY=0;entryDx=0;entryDy=0;exitX=0.5;exitY=1;exitDx=0;exitDy=0;" parent="1" source="T7hr7J7Lci3LLdRrN0Lu-38" target="4Maw-LyCIN15uIDDzg4y-18" edge="1">
          <mxGeometry relative="1" as="geometry">
            <mxPoint x="990" y="2600" as="sourcePoint" />
            <mxPoint x="1180" y="3140" as="targetPoint" />
          </mxGeometry>
        </mxCell>
        <mxCell id="B4JVpBIQNOr2g5kr9Hof-13" value="" style="endArrow=none;html=1;rounded=0;fontSize=30;strokeWidth=5;exitX=1;exitY=0.5;exitDx=0;exitDy=0;entryX=0;entryY=0.5;entryDx=0;entryDy=0;" parent="1" source="4Maw-LyCIN15uIDDzg4y-23" target="8up_OKJbOfCuFxiUnoEX-6" edge="1">
          <mxGeometry relative="1" as="geometry">
            <mxPoint x="530" y="2310" as="sourcePoint" />
            <mxPoint x="760" y="2310" as="targetPoint" />
          </mxGeometry>
        </mxCell>
        <mxCell id="B4JVpBIQNOr2g5kr9Hof-15" value="" style="endArrow=none;html=1;rounded=0;fontSize=30;strokeWidth=5;exitX=1;exitY=0;exitDx=0;exitDy=0;entryX=0.5;entryY=1;entryDx=0;entryDy=0;" parent="1" source="4Maw-LyCIN15uIDDzg4y-19" target="8up_OKJbOfCuFxiUnoEX-20" edge="1">
          <mxGeometry relative="1" as="geometry">
            <mxPoint x="460" y="2240" as="sourcePoint" />
            <mxPoint x="690" y="2240" as="targetPoint" />
            <Array as="points">
              <mxPoint x="1515" y="2790" />
            </Array>
          </mxGeometry>
        </mxCell>
        <mxCell id="B4JVpBIQNOr2g5kr9Hof-16" value="" style="endArrow=none;html=1;rounded=0;fontSize=30;strokeWidth=5;exitX=0.5;exitY=0;exitDx=0;exitDy=0;entryX=0;entryY=1;entryDx=0;entryDy=0;" parent="1" source="4Maw-LyCIN15uIDDzg4y-36" target="8up_OKJbOfCuFxiUnoEX-24" edge="1">
          <mxGeometry relative="1" as="geometry">
            <mxPoint x="1780" y="2650" as="sourcePoint" />
            <mxPoint x="2010" y="2650" as="targetPoint" />
            <Array as="points">
              <mxPoint x="1700" y="2610" />
            </Array>
          </mxGeometry>
        </mxCell>
        <mxCell id="B4JVpBIQNOr2g5kr9Hof-20" value="&lt;span style=&quot;font-size: 30px;&quot;&gt;N&lt;/span&gt;" style="text;html=1;align=center;verticalAlign=middle;resizable=0;points=[];autosize=1;strokeColor=none;fillColor=none;" parent="1" vertex="1">
          <mxGeometry x="512" y="3430" width="50" height="50" as="geometry" />
        </mxCell>
        <mxCell id="B4JVpBIQNOr2g5kr9Hof-21" value="&lt;span style=&quot;font-size: 30px;&quot;&gt;1&lt;/span&gt;" style="text;html=1;align=center;verticalAlign=middle;resizable=0;points=[];autosize=1;strokeColor=none;fillColor=none;" parent="1" vertex="1">
          <mxGeometry x="-222" y="2310" width="40" height="50" as="geometry" />
        </mxCell>
        <mxCell id="B4JVpBIQNOr2g5kr9Hof-22" value="&lt;span style=&quot;font-size: 30px;&quot;&gt;N&lt;/span&gt;" style="text;html=1;align=center;verticalAlign=middle;resizable=0;points=[];autosize=1;strokeColor=none;fillColor=none;" parent="1" vertex="1">
          <mxGeometry x="107" y="2310" width="50" height="50" as="geometry" />
        </mxCell>
        <mxCell id="B4JVpBIQNOr2g5kr9Hof-23" value="&lt;span style=&quot;font-size: 30px;&quot;&gt;N&lt;/span&gt;" style="text;html=1;align=center;verticalAlign=middle;resizable=0;points=[];autosize=1;strokeColor=none;fillColor=none;" parent="1" vertex="1">
          <mxGeometry x="990" y="3610" width="50" height="50" as="geometry" />
        </mxCell>
        <mxCell id="B4JVpBIQNOr2g5kr9Hof-24" value="&lt;span style=&quot;font-size: 30px;&quot;&gt;1&lt;/span&gt;" style="text;html=1;align=center;verticalAlign=middle;resizable=0;points=[];autosize=1;strokeColor=none;fillColor=none;" parent="1" vertex="1">
          <mxGeometry x="990" y="3900" width="40" height="50" as="geometry" />
        </mxCell>
        <mxCell id="B4JVpBIQNOr2g5kr9Hof-25" value="&lt;span style=&quot;font-size: 30px;&quot;&gt;1&lt;/span&gt;" style="text;html=1;align=center;verticalAlign=middle;resizable=0;points=[];autosize=1;strokeColor=none;fillColor=none;" parent="1" vertex="1">
          <mxGeometry x="1460" y="2900" width="40" height="50" as="geometry" />
        </mxCell>
        <mxCell id="B4JVpBIQNOr2g5kr9Hof-26" value="&lt;span style=&quot;font-size: 30px;&quot;&gt;N&lt;/span&gt;" style="text;html=1;align=center;verticalAlign=middle;resizable=0;points=[];autosize=1;strokeColor=none;fillColor=none;" parent="1" vertex="1">
          <mxGeometry x="1175" y="2900" width="50" height="50" as="geometry" />
        </mxCell>
        <mxCell id="B4JVpBIQNOr2g5kr9Hof-27" value="&lt;span style=&quot;font-size: 30px;&quot;&gt;N&lt;/span&gt;" style="text;html=1;align=center;verticalAlign=middle;resizable=0;points=[];autosize=1;strokeColor=none;fillColor=none;" parent="1" vertex="1">
          <mxGeometry x="340" y="2420" width="50" height="50" as="geometry" />
        </mxCell>
        <mxCell id="B4JVpBIQNOr2g5kr9Hof-28" value="&lt;span style=&quot;font-size: 30px;&quot;&gt;1&lt;/span&gt;" style="text;html=1;align=center;verticalAlign=middle;resizable=0;points=[];autosize=1;strokeColor=none;fillColor=none;" parent="1" vertex="1">
          <mxGeometry x="340" y="3290" width="40" height="50" as="geometry" />
        </mxCell>
        <mxCell id="B4JVpBIQNOr2g5kr9Hof-30" value="&lt;span style=&quot;font-size: 30px;&quot;&gt;N&lt;/span&gt;" style="text;html=1;align=center;verticalAlign=middle;resizable=0;points=[];autosize=1;strokeColor=none;fillColor=none;" parent="1" vertex="1">
          <mxGeometry x="750" y="2300" width="50" height="50" as="geometry" />
        </mxCell>
        <mxCell id="B4JVpBIQNOr2g5kr9Hof-31" value="&lt;span style=&quot;font-size: 30px;&quot;&gt;1&lt;/span&gt;" style="text;html=1;align=center;verticalAlign=middle;resizable=0;points=[];autosize=1;strokeColor=none;fillColor=none;" parent="1" vertex="1">
          <mxGeometry x="985" y="2690" width="40" height="50" as="geometry" />
        </mxCell>
        <mxCell id="B4JVpBIQNOr2g5kr9Hof-32" value="&lt;span style=&quot;font-size: 30px;&quot;&gt;N&lt;/span&gt;" style="text;html=1;align=center;verticalAlign=middle;resizable=0;points=[];autosize=1;strokeColor=none;fillColor=none;" parent="1" vertex="1">
          <mxGeometry x="940" y="2400" width="50" height="50" as="geometry" />
        </mxCell>
        <mxCell id="B4JVpBIQNOr2g5kr9Hof-33" value="&lt;span style=&quot;font-size: 30px;&quot;&gt;1&lt;/span&gt;" style="text;html=1;align=center;verticalAlign=middle;resizable=0;points=[];autosize=1;strokeColor=none;fillColor=none;" parent="1" vertex="1">
          <mxGeometry x="1470" y="2420" width="40" height="50" as="geometry" />
        </mxCell>
        <mxCell id="B4JVpBIQNOr2g5kr9Hof-34" value="&lt;span style=&quot;font-size: 30px;&quot;&gt;N&lt;/span&gt;" style="text;html=1;align=center;verticalAlign=middle;resizable=0;points=[];autosize=1;strokeColor=none;fillColor=none;" parent="1" vertex="1">
          <mxGeometry x="1180" y="2740" width="50" height="50" as="geometry" />
        </mxCell>
        <mxCell id="B4JVpBIQNOr2g5kr9Hof-35" value="&lt;span style=&quot;font-size: 30px;&quot;&gt;1&lt;/span&gt;" style="text;html=1;align=center;verticalAlign=middle;resizable=0;points=[];autosize=1;strokeColor=none;fillColor=none;" parent="1" vertex="1">
          <mxGeometry x="1700" y="2230" width="40" height="50" as="geometry" />
        </mxCell>
        <mxCell id="B4JVpBIQNOr2g5kr9Hof-36" value="&lt;span style=&quot;font-size: 30px;&quot;&gt;N&lt;/span&gt;" style="text;html=1;align=center;verticalAlign=middle;resizable=0;points=[];autosize=1;strokeColor=none;fillColor=none;" parent="1" vertex="1">
          <mxGeometry x="2230" y="2240" width="50" height="50" as="geometry" />
        </mxCell>
        <mxCell id="B4JVpBIQNOr2g5kr9Hof-37" value="&lt;span style=&quot;font-size: 30px;&quot;&gt;1&lt;/span&gt;" style="text;html=1;align=center;verticalAlign=middle;resizable=0;points=[];autosize=1;strokeColor=none;fillColor=none;" parent="1" vertex="1">
          <mxGeometry x="1700" y="2810" width="40" height="50" as="geometry" />
        </mxCell>
        <mxCell id="B4JVpBIQNOr2g5kr9Hof-38" value="&lt;span style=&quot;font-size: 30px;&quot;&gt;N&lt;/span&gt;" style="text;html=1;align=center;verticalAlign=middle;resizable=0;points=[];autosize=1;strokeColor=none;fillColor=none;" parent="1" vertex="1">
          <mxGeometry x="2230" y="2330" width="50" height="50" as="geometry" />
        </mxCell>
        <mxCell id="B4JVpBIQNOr2g5kr9Hof-39" value="&lt;span style=&quot;font-size: 30px;&quot;&gt;N&lt;/span&gt;" style="text;html=1;align=center;verticalAlign=middle;resizable=0;points=[];autosize=1;strokeColor=none;fillColor=none;" parent="1" vertex="1">
          <mxGeometry x="2470" y="2610" width="50" height="50" as="geometry" />
        </mxCell>
        <mxCell id="B4JVpBIQNOr2g5kr9Hof-40" value="&lt;span style=&quot;font-size: 30px;&quot;&gt;1&lt;/span&gt;" style="text;html=1;align=center;verticalAlign=middle;resizable=0;points=[];autosize=1;strokeColor=none;fillColor=none;" parent="1" vertex="1">
          <mxGeometry x="2470" y="2370" width="40" height="50" as="geometry" />
        </mxCell>
        <mxCell id="B4JVpBIQNOr2g5kr9Hof-41" value="&lt;span style=&quot;font-size: 30px;&quot;&gt;1&lt;/span&gt;" style="text;html=1;align=center;verticalAlign=middle;resizable=0;points=[];autosize=1;strokeColor=none;fillColor=none;" parent="1" vertex="1">
          <mxGeometry x="522" y="2300" width="40" height="50" as="geometry" />
        </mxCell>
        <mxCell id="B4JVpBIQNOr2g5kr9Hof-42" value="&lt;span style=&quot;font-size: 30px;&quot;&gt;N&lt;/span&gt;" style="text;html=1;align=center;verticalAlign=middle;resizable=0;points=[];autosize=1;strokeColor=none;fillColor=none;" parent="1" vertex="1">
          <mxGeometry x="2480" y="3130" width="50" height="50" as="geometry" />
        </mxCell>
        <mxCell id="B4JVpBIQNOr2g5kr9Hof-43" value="&lt;span style=&quot;font-size: 30px;&quot;&gt;1&lt;/span&gt;" style="text;html=1;align=center;verticalAlign=middle;resizable=0;points=[];autosize=1;strokeColor=none;fillColor=none;" parent="1" vertex="1">
          <mxGeometry x="2470" y="2880" width="40" height="50" as="geometry" />
        </mxCell>
        <mxCell id="B4JVpBIQNOr2g5kr9Hof-44" value="&lt;span style=&quot;font-size: 30px;&quot;&gt;N&lt;/span&gt;" style="text;html=1;align=center;verticalAlign=middle;resizable=0;points=[];autosize=1;strokeColor=none;fillColor=none;" parent="1" vertex="1">
          <mxGeometry x="2480" y="3735" width="50" height="50" as="geometry" />
        </mxCell>
        <mxCell id="B4JVpBIQNOr2g5kr9Hof-45" value="&lt;span style=&quot;font-size: 30px;&quot;&gt;1&lt;/span&gt;" style="text;html=1;align=center;verticalAlign=middle;resizable=0;points=[];autosize=1;strokeColor=none;fillColor=none;" parent="1" vertex="1">
          <mxGeometry x="2480" y="3410" width="40" height="50" as="geometry" />
        </mxCell>
        <mxCell id="B4JVpBIQNOr2g5kr9Hof-46" value="&lt;span style=&quot;font-size: 30px;&quot;&gt;N&lt;/span&gt;" style="text;html=1;align=center;verticalAlign=middle;resizable=0;points=[];autosize=1;strokeColor=none;fillColor=none;" parent="1" vertex="1">
          <mxGeometry x="2475" y="4010" width="50" height="50" as="geometry" />
        </mxCell>
        <mxCell id="B4JVpBIQNOr2g5kr9Hof-47" value="&lt;span style=&quot;font-size: 30px;&quot;&gt;1&lt;/span&gt;" style="text;html=1;align=center;verticalAlign=middle;resizable=0;points=[];autosize=1;strokeColor=none;fillColor=none;" parent="1" vertex="1">
          <mxGeometry x="2480" y="4350" width="40" height="50" as="geometry" />
        </mxCell>
        <mxCell id="B4JVpBIQNOr2g5kr9Hof-48" value="&lt;span style=&quot;font-size: 30px;&quot;&gt;N&lt;/span&gt;" style="text;html=1;align=center;verticalAlign=middle;resizable=0;points=[];autosize=1;strokeColor=none;fillColor=none;" parent="1" vertex="1">
          <mxGeometry x="2660" y="3860" width="50" height="50" as="geometry" />
        </mxCell>
        <mxCell id="B4JVpBIQNOr2g5kr9Hof-49" value="&lt;span style=&quot;font-size: 30px;&quot;&gt;1&lt;/span&gt;" style="text;html=1;align=center;verticalAlign=middle;resizable=0;points=[];autosize=1;strokeColor=none;fillColor=none;" parent="1" vertex="1">
          <mxGeometry x="3000" y="3875" width="40" height="50" as="geometry" />
        </mxCell>
        <mxCell id="B4JVpBIQNOr2g5kr9Hof-50" value="&lt;span style=&quot;font-size: 30px;&quot;&gt;1&lt;/span&gt;" style="text;html=1;align=center;verticalAlign=middle;resizable=0;points=[];autosize=1;strokeColor=none;fillColor=none;" parent="1" vertex="1">
          <mxGeometry x="715" y="3430" width="40" height="50" as="geometry" />
        </mxCell>
        <mxCell id="8up_OKJbOfCuFxiUnoEX-1" value="" style="endArrow=none;html=1;rounded=0;fontSize=30;entryX=1;entryY=0.5;entryDx=0;entryDy=0;exitX=0;exitY=0.5;exitDx=0;exitDy=0;strokeWidth=5;" parent="1" source="4Maw-LyCIN15uIDDzg4y-58" target="8up_OKJbOfCuFxiUnoEX-2" edge="1">
          <mxGeometry relative="1" as="geometry">
            <mxPoint x="3213" y="3283.5699999999997" as="sourcePoint" />
            <mxPoint x="2980" y="3284.5699999999997" as="targetPoint" />
          </mxGeometry>
        </mxCell>
        <mxCell id="8up_OKJbOfCuFxiUnoEX-2" value="&lt;font style=&quot;font-size: 30px;&quot;&gt;thuộc&lt;/font&gt;" style="shape=rhombus;perimeter=rhombusPerimeter;whiteSpace=wrap;html=1;align=center;strokeWidth=5;" parent="1" vertex="1">
          <mxGeometry x="2800" y="3890" width="120" height="60" as="geometry" />
        </mxCell>
        <mxCell id="8up_OKJbOfCuFxiUnoEX-4" value="&lt;font style=&quot;font-size: 30px;&quot;&gt;thuộc&lt;/font&gt;" style="shape=rhombus;perimeter=rhombusPerimeter;whiteSpace=wrap;html=1;align=center;strokeWidth=5;" parent="1" vertex="1">
          <mxGeometry x="-90" y="2280" width="120" height="60" as="geometry" />
        </mxCell>
        <mxCell id="8up_OKJbOfCuFxiUnoEX-5" value="" style="endArrow=none;html=1;rounded=0;fontSize=30;entryX=1;entryY=0.5;entryDx=0;entryDy=0;exitX=0.006;exitY=0.558;exitDx=0;exitDy=0;strokeWidth=5;exitPerimeter=0;" parent="1" source="4Maw-LyCIN15uIDDzg4y-23" target="8up_OKJbOfCuFxiUnoEX-4" edge="1">
          <mxGeometry relative="1" as="geometry">
            <mxPoint x="333" y="2040" as="sourcePoint" />
            <mxPoint x="100" y="2041" as="targetPoint" />
          </mxGeometry>
        </mxCell>
        <mxCell id="8up_OKJbOfCuFxiUnoEX-6" value="&lt;font style=&quot;font-size: 30px;&quot;&gt;thuộc&lt;/font&gt;" style="shape=rhombus;perimeter=rhombusPerimeter;whiteSpace=wrap;html=1;align=center;strokeWidth=5;" parent="1" vertex="1">
          <mxGeometry x="600" y="2270" width="120" height="60" as="geometry" />
        </mxCell>
        <mxCell id="8up_OKJbOfCuFxiUnoEX-7" value="" style="endArrow=none;html=1;rounded=0;fontSize=30;entryX=1;entryY=0.5;entryDx=0;entryDy=0;exitX=0;exitY=0.5;exitDx=0;exitDy=0;strokeWidth=5;" parent="1" source="B4JVpBIQNOr2g5kr9Hof-7" target="8up_OKJbOfCuFxiUnoEX-6" edge="1">
          <mxGeometry relative="1" as="geometry">
            <mxPoint x="333" y="2040" as="sourcePoint" />
            <mxPoint x="100" y="2041" as="targetPoint" />
          </mxGeometry>
        </mxCell>
        <mxCell id="8up_OKJbOfCuFxiUnoEX-8" value="&lt;font style=&quot;font-size: 30px;&quot;&gt;thuộc&lt;/font&gt;" style="shape=rhombus;perimeter=rhombusPerimeter;whiteSpace=wrap;html=1;align=center;strokeWidth=5;" parent="1" vertex="1">
          <mxGeometry x="280" y="2850" width="120" height="60" as="geometry" />
        </mxCell>
        <mxCell id="8up_OKJbOfCuFxiUnoEX-9" value="" style="endArrow=none;html=1;rounded=0;fontSize=30;entryX=0.5;entryY=1;entryDx=0;entryDy=0;exitX=0.5;exitY=0;exitDx=0;exitDy=0;strokeWidth=5;" parent="1" source="4Maw-LyCIN15uIDDzg4y-11" target="8up_OKJbOfCuFxiUnoEX-8" edge="1">
          <mxGeometry relative="1" as="geometry">
            <mxPoint x="333" y="2040" as="sourcePoint" />
            <mxPoint x="100" y="2041" as="targetPoint" />
          </mxGeometry>
        </mxCell>
        <mxCell id="8up_OKJbOfCuFxiUnoEX-10" value="&lt;font style=&quot;font-size: 30px;&quot;&gt;thuộc&lt;/font&gt;" style="shape=rhombus;perimeter=rhombusPerimeter;whiteSpace=wrap;html=1;align=center;strokeWidth=5;" parent="1" vertex="1">
          <mxGeometry x="572" y="3450" width="120" height="60" as="geometry" />
        </mxCell>
        <mxCell id="8up_OKJbOfCuFxiUnoEX-11" value="" style="endArrow=none;html=1;rounded=0;fontSize=30;entryX=1;entryY=0.5;entryDx=0;entryDy=0;strokeWidth=5;exitX=0;exitY=0.5;exitDx=0;exitDy=0;" parent="1" source="4Maw-LyCIN15uIDDzg4y-8" target="8up_OKJbOfCuFxiUnoEX-10" edge="1">
          <mxGeometry relative="1" as="geometry">
            <mxPoint x="750" y="3310" as="sourcePoint" />
            <mxPoint x="100" y="2041" as="targetPoint" />
          </mxGeometry>
        </mxCell>
        <mxCell id="8up_OKJbOfCuFxiUnoEX-12" value="&lt;font style=&quot;font-size: 30px;&quot;&gt;thuộc&lt;/font&gt;" style="shape=rhombus;perimeter=rhombusPerimeter;whiteSpace=wrap;html=1;align=center;strokeWidth=5;" parent="1" vertex="1">
          <mxGeometry x="930" y="3730" width="120" height="60" as="geometry" />
        </mxCell>
        <mxCell id="8up_OKJbOfCuFxiUnoEX-13" value="" style="endArrow=none;html=1;rounded=0;fontSize=30;entryX=0.5;entryY=0;entryDx=0;entryDy=0;exitX=0.5;exitY=1;exitDx=0;exitDy=0;strokeWidth=5;" parent="1" source="8up_OKJbOfCuFxiUnoEX-12" target="4Maw-LyCIN15uIDDzg4y-1" edge="1">
          <mxGeometry relative="1" as="geometry">
            <mxPoint x="153" y="2990" as="sourcePoint" />
            <mxPoint x="-80" y="2991" as="targetPoint" />
          </mxGeometry>
        </mxCell>
        <mxCell id="8up_OKJbOfCuFxiUnoEX-14" value="&lt;font style=&quot;font-size: 30px;&quot;&gt;thuộc&lt;/font&gt;" style="shape=rhombus;perimeter=rhombusPerimeter;whiteSpace=wrap;html=1;align=center;strokeWidth=5;" parent="1" vertex="1">
          <mxGeometry x="1270" y="2870" width="120" height="60" as="geometry" />
        </mxCell>
        <mxCell id="8up_OKJbOfCuFxiUnoEX-15" value="&lt;font style=&quot;font-size: 30px;&quot;&gt;thuộc&lt;/font&gt;" style="shape=rhombus;perimeter=rhombusPerimeter;whiteSpace=wrap;html=1;align=center;strokeWidth=5;" parent="1" vertex="1">
          <mxGeometry x="930" y="3130" width="120" height="60" as="geometry" />
        </mxCell>
        <mxCell id="8up_OKJbOfCuFxiUnoEX-16" value="" style="endArrow=none;html=1;rounded=0;fontSize=30;entryX=0.5;entryY=0;entryDx=0;entryDy=0;exitX=0.5;exitY=1;exitDx=0;exitDy=0;strokeWidth=5;" parent="1" source="8up_OKJbOfCuFxiUnoEX-15" target="4Maw-LyCIN15uIDDzg4y-7" edge="1">
          <mxGeometry relative="1" as="geometry">
            <mxPoint x="745" y="3097.7799999999997" as="sourcePoint" />
            <mxPoint x="512" y="3098.7799999999997" as="targetPoint" />
          </mxGeometry>
        </mxCell>
        <mxCell id="8up_OKJbOfCuFxiUnoEX-17" value="&lt;span style=&quot;font-size: 30px;&quot;&gt;1&lt;/span&gt;" style="text;html=1;align=center;verticalAlign=middle;resizable=0;points=[];autosize=1;strokeColor=none;fillColor=none;" parent="1" vertex="1">
          <mxGeometry x="990" y="3260" width="40" height="50" as="geometry" />
        </mxCell>
        <mxCell id="8up_OKJbOfCuFxiUnoEX-18" value="&lt;span style=&quot;font-size: 30px;&quot;&gt;N&lt;/span&gt;" style="text;html=1;align=center;verticalAlign=middle;resizable=0;points=[];autosize=1;strokeColor=none;fillColor=none;" parent="1" vertex="1">
          <mxGeometry x="990" y="3015" width="50" height="50" as="geometry" />
        </mxCell>
        <mxCell id="8up_OKJbOfCuFxiUnoEX-19" value="" style="endArrow=none;html=1;rounded=0;fontSize=30;entryX=0;entryY=0.078;entryDx=0;entryDy=0;exitX=1;exitY=0.5;exitDx=0;exitDy=0;strokeWidth=5;entryPerimeter=0;" parent="1" source="8up_OKJbOfCuFxiUnoEX-14" target="4Maw-LyCIN15uIDDzg4y-36" edge="1">
          <mxGeometry relative="1" as="geometry">
            <mxPoint x="1453" y="3158.75" as="sourcePoint" />
            <mxPoint x="1220" y="3159.75" as="targetPoint" />
          </mxGeometry>
        </mxCell>
        <mxCell id="8up_OKJbOfCuFxiUnoEX-20" value="&lt;font style=&quot;font-size: 30px;&quot;&gt;thuộc&lt;/font&gt;" style="shape=rhombus;perimeter=rhombusPerimeter;whiteSpace=wrap;html=1;align=center;strokeWidth=5;" parent="1" vertex="1">
          <mxGeometry x="1455" y="2582.5" width="120" height="60" as="geometry" />
        </mxCell>
        <mxCell id="8up_OKJbOfCuFxiUnoEX-21" value="" style="endArrow=none;html=1;rounded=0;fontSize=30;entryX=0.5;entryY=1;entryDx=0;entryDy=0;exitX=0.5;exitY=0;exitDx=0;exitDy=0;strokeWidth=5;" parent="1" source="8up_OKJbOfCuFxiUnoEX-20" target="4Maw-LyCIN15uIDDzg4y-38" edge="1">
          <mxGeometry relative="1" as="geometry">
            <mxPoint x="1523" y="2530" as="sourcePoint" />
            <mxPoint x="1290" y="2531" as="targetPoint" />
          </mxGeometry>
        </mxCell>
        <mxCell id="8up_OKJbOfCuFxiUnoEX-22" value="&lt;font style=&quot;font-size: 30px;&quot;&gt;thuộc&lt;/font&gt;" style="shape=rhombus;perimeter=rhombusPerimeter;whiteSpace=wrap;html=1;align=center;strokeWidth=5;" parent="1" vertex="1">
          <mxGeometry x="1950" y="2260" width="120" height="60" as="geometry" />
        </mxCell>
        <mxCell id="8up_OKJbOfCuFxiUnoEX-23" value="" style="endArrow=none;html=1;rounded=0;fontSize=30;entryX=1;entryY=0.5;entryDx=0;entryDy=0;exitX=0;exitY=0.5;exitDx=0;exitDy=0;strokeWidth=5;" parent="1" source="4Maw-LyCIN15uIDDzg4y-45" target="8up_OKJbOfCuFxiUnoEX-22" edge="1">
          <mxGeometry relative="1" as="geometry">
            <mxPoint x="2243" y="2050" as="sourcePoint" />
            <mxPoint x="2010" y="2051" as="targetPoint" />
          </mxGeometry>
        </mxCell>
        <mxCell id="8up_OKJbOfCuFxiUnoEX-24" value="&lt;font style=&quot;font-size: 30px;&quot;&gt;thuộc&lt;/font&gt;" style="shape=rhombus;perimeter=rhombusPerimeter;whiteSpace=wrap;html=1;align=center;strokeWidth=5;" parent="1" vertex="1">
          <mxGeometry x="1850" y="2460" width="120" height="60" as="geometry" />
        </mxCell>
        <mxCell id="8up_OKJbOfCuFxiUnoEX-25" value="" style="endArrow=none;html=1;rounded=0;fontSize=30;entryX=1;entryY=0;entryDx=0;entryDy=0;exitX=0;exitY=0.75;exitDx=0;exitDy=0;strokeWidth=5;" parent="1" source="4Maw-LyCIN15uIDDzg4y-45" target="8up_OKJbOfCuFxiUnoEX-24" edge="1">
          <mxGeometry relative="1" as="geometry">
            <mxPoint x="2173" y="2663.89" as="sourcePoint" />
            <mxPoint x="1940" y="2664.89" as="targetPoint" />
            <Array as="points">
              <mxPoint x="2150" y="2326" />
            </Array>
          </mxGeometry>
        </mxCell>
        <mxCell id="8up_OKJbOfCuFxiUnoEX-26" value="&lt;font style=&quot;font-size: 30px;&quot;&gt;thuộc&lt;/font&gt;" style="shape=rhombus;perimeter=rhombusPerimeter;whiteSpace=wrap;html=1;align=center;strokeWidth=5;" parent="1" vertex="1">
          <mxGeometry x="2410" y="2480" width="120" height="60" as="geometry" />
        </mxCell>
        <mxCell id="8up_OKJbOfCuFxiUnoEX-28" value="" style="endArrow=none;html=1;rounded=0;fontSize=30;entryX=0.5;entryY=1;entryDx=0;entryDy=0;exitX=0.5;exitY=0;exitDx=0;exitDy=0;strokeWidth=5;" parent="1" source="4Maw-LyCIN15uIDDzg4y-47" target="8up_OKJbOfCuFxiUnoEX-26" edge="1">
          <mxGeometry relative="1" as="geometry">
            <mxPoint x="2813" y="2508.75" as="sourcePoint" />
            <mxPoint x="2580" y="2509.75" as="targetPoint" />
          </mxGeometry>
        </mxCell>
        <mxCell id="8up_OKJbOfCuFxiUnoEX-29" value="&lt;font style=&quot;font-size: 30px;&quot;&gt;thuộc&lt;/font&gt;" style="shape=rhombus;perimeter=rhombusPerimeter;whiteSpace=wrap;html=1;align=center;strokeWidth=5;" parent="1" vertex="1">
          <mxGeometry x="2410" y="3000" width="120" height="60" as="geometry" />
        </mxCell>
        <mxCell id="8up_OKJbOfCuFxiUnoEX-30" value="" style="endArrow=none;html=1;rounded=0;fontSize=30;entryX=0.5;entryY=0;entryDx=0;entryDy=0;exitX=0.5;exitY=1;exitDx=0;exitDy=0;strokeWidth=5;" parent="1" source="8up_OKJbOfCuFxiUnoEX-29" target="4Maw-LyCIN15uIDDzg4y-49" edge="1">
          <mxGeometry relative="1" as="geometry">
            <mxPoint x="2233" y="3038.5699999999997" as="sourcePoint" />
            <mxPoint x="2000" y="3039.5699999999997" as="targetPoint" />
          </mxGeometry>
        </mxCell>
        <mxCell id="8up_OKJbOfCuFxiUnoEX-31" value="&lt;font style=&quot;font-size: 30px;&quot;&gt;thuộc&lt;/font&gt;" style="shape=rhombus;perimeter=rhombusPerimeter;whiteSpace=wrap;html=1;align=center;strokeWidth=5;" parent="1" vertex="1">
          <mxGeometry x="2415" y="3570" width="120" height="60" as="geometry" />
        </mxCell>
        <mxCell id="8up_OKJbOfCuFxiUnoEX-32" value="" style="endArrow=none;html=1;rounded=0;fontSize=30;entryX=0.5;entryY=0;entryDx=0;entryDy=0;exitX=0.5;exitY=1;exitDx=0;exitDy=0;strokeWidth=5;" parent="1" source="8up_OKJbOfCuFxiUnoEX-31" target="4Maw-LyCIN15uIDDzg4y-52" edge="1">
          <mxGeometry relative="1" as="geometry">
            <mxPoint x="2223" y="3510" as="sourcePoint" />
            <mxPoint x="1990" y="3511" as="targetPoint" />
          </mxGeometry>
        </mxCell>
        <mxCell id="8up_OKJbOfCuFxiUnoEX-33" value="&lt;font style=&quot;font-size: 30px;&quot;&gt;thuộc&lt;/font&gt;" style="shape=rhombus;perimeter=rhombusPerimeter;whiteSpace=wrap;html=1;align=center;strokeWidth=5;" parent="1" vertex="1">
          <mxGeometry x="2415" y="4180" width="120" height="60" as="geometry" />
        </mxCell>
        <mxCell id="8up_OKJbOfCuFxiUnoEX-34" value="" style="endArrow=none;html=1;rounded=0;fontSize=30;entryX=0.5;entryY=0;entryDx=0;entryDy=0;exitX=0.5;exitY=1;exitDx=0;exitDy=0;strokeWidth=5;" parent="1" source="8up_OKJbOfCuFxiUnoEX-33" target="4Maw-LyCIN15uIDDzg4y-55" edge="1">
          <mxGeometry relative="1" as="geometry">
            <mxPoint x="2143" y="4208.57" as="sourcePoint" />
            <mxPoint x="1910" y="4209.57" as="targetPoint" />
          </mxGeometry>
        </mxCell>
        <mxCell id="0nNY5fNR4Bw_331YeXxI-1" value="TypeOfSeat" style="swimlane;childLayout=stackLayout;horizontal=1;startSize=40;horizontalStack=0;rounded=1;fontSize=30;fontStyle=0;strokeWidth=5;resizeParent=0;resizeLast=1;shadow=0;dashed=0;align=center;" parent="1" vertex="1">
          <mxGeometry x="-600" y="4960" width="370" height="162.5" as="geometry" />
        </mxCell>
        <mxCell id="0nNY5fNR4Bw_331YeXxI-2" value="+ID_TypeSeat: varchar&#xa;+NameTypeSeat: nvarchar&#xa;+Surcharge: int" style="align=left;strokeColor=none;fillColor=none;spacingLeft=4;fontSize=30;verticalAlign=top;resizable=0;rotatable=0;part=1;shadow=1;strokeWidth=5;" parent="0nNY5fNR4Bw_331YeXxI-1" vertex="1">
          <mxGeometry y="40" width="370" height="122.5" as="geometry" />
        </mxCell>
        <mxCell id="0nNY5fNR4Bw_331YeXxI-5" value="seat" style="swimlane;childLayout=stackLayout;horizontal=1;startSize=30;horizontalStack=0;rounded=1;fontSize=30;fontStyle=0;strokeWidth=5;resizeParent=0;resizeLast=1;shadow=0;dashed=0;align=center;" parent="1" vertex="1">
          <mxGeometry x="832" y="4906.25" width="366" height="270" as="geometry" />
        </mxCell>
        <mxCell id="0nNY5fNR4Bw_331YeXxI-6" value="+ID_Seat: varchar&#xa;+Colum: int &#xa;+Row: int&#xa;+IsChoosen: bit&#xa;+ID_room: varchar&#xa;+ID_TypeSeat: varchar" style="align=left;strokeColor=none;fillColor=none;spacingLeft=4;fontSize=30;verticalAlign=top;resizable=0;rotatable=0;part=1;shadow=1;strokeWidth=5;" parent="0nNY5fNR4Bw_331YeXxI-5" vertex="1">
          <mxGeometry y="30" width="366" height="240" as="geometry" />
        </mxCell>
        <mxCell id="0nNY5fNR4Bw_331YeXxI-7" value="&lt;font style=&quot;font-size: 30px;&quot;&gt;thuộc&lt;/font&gt;" style="shape=rhombus;perimeter=rhombusPerimeter;whiteSpace=wrap;html=1;align=center;strokeWidth=5;" parent="1" vertex="1">
          <mxGeometry x="230" y="5011.25" width="120" height="60" as="geometry" />
        </mxCell>
        <mxCell id="0nNY5fNR4Bw_331YeXxI-8" value="" style="endArrow=none;html=1;rounded=0;fontSize=30;exitX=0;exitY=0.5;exitDx=0;exitDy=0;strokeWidth=5;entryX=1.003;entryY=0.362;entryDx=0;entryDy=0;entryPerimeter=0;" parent="1" source="0nNY5fNR4Bw_331YeXxI-7" target="0nNY5fNR4Bw_331YeXxI-2" edge="1">
          <mxGeometry relative="1" as="geometry">
            <mxPoint x="-80" y="2530" as="sourcePoint" />
            <mxPoint x="-230" y="5041" as="targetPoint" />
          </mxGeometry>
        </mxCell>
        <mxCell id="0nNY5fNR4Bw_331YeXxI-10" value="" style="endArrow=none;html=1;rounded=0;fontSize=30;strokeWidth=5;entryX=1;entryY=0.5;entryDx=0;entryDy=0;exitX=0.005;exitY=0.441;exitDx=0;exitDy=0;exitPerimeter=0;" parent="1" source="0nNY5fNR4Bw_331YeXxI-6" target="0nNY5fNR4Bw_331YeXxI-7" edge="1">
          <mxGeometry relative="1" as="geometry">
            <mxPoint x="240" y="5051" as="sourcePoint" />
            <mxPoint x="-220" y="5051" as="targetPoint" />
          </mxGeometry>
        </mxCell>
        <mxCell id="0nNY5fNR4Bw_331YeXxI-12" value="&lt;span style=&quot;font-size: 30px;&quot;&gt;1&lt;/span&gt;" style="text;html=1;align=center;verticalAlign=middle;resizable=0;points=[];autosize=1;strokeColor=none;fillColor=none;" parent="1" vertex="1">
          <mxGeometry x="-230" y="4990" width="40" height="50" as="geometry" />
        </mxCell>
        <mxCell id="0nNY5fNR4Bw_331YeXxI-13" value="&lt;span style=&quot;font-size: 30px;&quot;&gt;N&lt;/span&gt;" style="text;html=1;align=center;verticalAlign=middle;resizable=0;points=[];autosize=1;strokeColor=none;fillColor=none;" parent="1" vertex="1">
          <mxGeometry x="782" y="4990" width="50" height="50" as="geometry" />
        </mxCell>
        <mxCell id="0nNY5fNR4Bw_331YeXxI-14" value="seat" style="swimlane;childLayout=stackLayout;horizontal=1;startSize=30;horizontalStack=0;rounded=1;fontSize=30;fontStyle=0;strokeWidth=5;resizeParent=0;resizeLast=1;shadow=0;dashed=0;align=center;" parent="1" vertex="1">
          <mxGeometry x="-590" y="5290" width="366" height="270" as="geometry" />
        </mxCell>
        <mxCell id="0nNY5fNR4Bw_331YeXxI-15" value="+ID_Seat: varchar&#xa;+Colum: int &#xa;+Row: int&#xa;+IsChoosen: bit&#xa;+ID_room: varchar&#xa;+ID_TypeSeat: varchar" style="align=left;strokeColor=none;fillColor=none;spacingLeft=4;fontSize=30;verticalAlign=top;resizable=0;rotatable=0;part=1;shadow=1;strokeWidth=5;" parent="0nNY5fNR4Bw_331YeXxI-14" vertex="1">
          <mxGeometry y="30" width="366" height="240" as="geometry" />
        </mxCell>
        <mxCell id="0nNY5fNR4Bw_331YeXxI-16" value="room" style="swimlane;childLayout=stackLayout;horizontal=1;startSize=30;horizontalStack=0;rounded=1;fontSize=30;fontStyle=0;strokeWidth=5;resizeParent=0;resizeLast=1;shadow=0;dashed=0;align=center;" parent="1" vertex="1">
          <mxGeometry x="834" y="5300" width="352" height="250" as="geometry" />
        </mxCell>
        <mxCell id="0nNY5fNR4Bw_331YeXxI-17" value="+ID_Room: varchar&#xa;+RowOfChair: int&#xa;+ColumOfChair: int&#xa;+NumOfVIPChair: int&#xa;+NumOfCoupleChair:int&#xa;+Quantity: int" style="align=left;strokeColor=none;fillColor=none;spacingLeft=4;fontSize=30;verticalAlign=top;resizable=0;rotatable=0;part=1;shadow=1;strokeWidth=5;" parent="0nNY5fNR4Bw_331YeXxI-16" vertex="1">
          <mxGeometry y="30" width="352" height="220" as="geometry" />
        </mxCell>
        <mxCell id="0nNY5fNR4Bw_331YeXxI-18" value="&lt;font style=&quot;font-size: 30px;&quot;&gt;thuộc&lt;/font&gt;" style="shape=rhombus;perimeter=rhombusPerimeter;whiteSpace=wrap;html=1;align=center;strokeWidth=5;" parent="1" vertex="1">
          <mxGeometry x="250" y="5410" width="120" height="60" as="geometry" />
        </mxCell>
        <mxCell id="0nNY5fNR4Bw_331YeXxI-19" value="" style="endArrow=none;html=1;rounded=0;fontSize=30;exitX=0;exitY=0.5;exitDx=0;exitDy=0;entryX=1;entryY=0.5;entryDx=0;entryDy=0;strokeWidth=5;" parent="1" source="0nNY5fNR4Bw_331YeXxI-18" target="0nNY5fNR4Bw_331YeXxI-15" edge="1">
          <mxGeometry relative="1" as="geometry">
            <mxPoint y="5980" as="sourcePoint" />
            <mxPoint x="6" y="5660" as="targetPoint" />
          </mxGeometry>
        </mxCell>
        <mxCell id="0nNY5fNR4Bw_331YeXxI-21" value="" style="endArrow=none;html=1;rounded=0;fontSize=30;entryX=1;entryY=0.5;entryDx=0;entryDy=0;exitX=0;exitY=0.5;exitDx=0;exitDy=0;strokeWidth=5;" parent="1" source="0nNY5fNR4Bw_331YeXxI-17" target="0nNY5fNR4Bw_331YeXxI-18" edge="1">
          <mxGeometry relative="1" as="geometry">
            <mxPoint x="680" y="6060" as="sourcePoint" />
            <mxPoint x="684" y="5740" as="targetPoint" />
          </mxGeometry>
        </mxCell>
        <mxCell id="0nNY5fNR4Bw_331YeXxI-22" value="&lt;span style=&quot;font-size: 30px;&quot;&gt;N&lt;/span&gt;" style="text;html=1;align=center;verticalAlign=middle;resizable=0;points=[];autosize=1;strokeColor=none;fillColor=none;" parent="1" vertex="1">
          <mxGeometry x="-220" y="5390" width="50" height="50" as="geometry" />
        </mxCell>
        <mxCell id="0nNY5fNR4Bw_331YeXxI-23" value="&lt;span style=&quot;font-size: 30px;&quot;&gt;1&lt;/span&gt;" style="text;html=1;align=center;verticalAlign=middle;resizable=0;points=[];autosize=1;strokeColor=none;fillColor=none;" parent="1" vertex="1">
          <mxGeometry x="792" y="5390" width="40" height="50" as="geometry" />
        </mxCell>
        <mxCell id="0nNY5fNR4Bw_331YeXxI-24" value="seat" style="swimlane;childLayout=stackLayout;horizontal=1;startSize=30;horizontalStack=0;rounded=1;fontSize=30;fontStyle=0;strokeWidth=5;resizeParent=0;resizeLast=1;shadow=0;dashed=0;align=center;" parent="1" vertex="1">
          <mxGeometry x="-600" y="5690" width="366" height="270" as="geometry" />
        </mxCell>
        <mxCell id="0nNY5fNR4Bw_331YeXxI-25" value="+ID_Seat: varchar&#xa;+Colum: int &#xa;+Row: int&#xa;+IsChoosen: bit&#xa;+ID_room: varchar&#xa;+ID_TypeSeat: varchar" style="align=left;strokeColor=none;fillColor=none;spacingLeft=4;fontSize=30;verticalAlign=top;resizable=0;rotatable=0;part=1;shadow=1;strokeWidth=5;" parent="0nNY5fNR4Bw_331YeXxI-24" vertex="1">
          <mxGeometry y="30" width="366" height="240" as="geometry" />
        </mxCell>
        <mxCell id="0nNY5fNR4Bw_331YeXxI-26" value="detail_ticket_sale" style="swimlane;childLayout=stackLayout;horizontal=1;startSize=40;horizontalStack=0;rounded=1;fontSize=30;fontStyle=0;strokeWidth=5;resizeParent=0;resizeLast=1;shadow=0;dashed=0;align=center;" parent="1" vertex="1">
          <mxGeometry x="830" y="5720" width="370" height="240" as="geometry" />
        </mxCell>
        <mxCell id="0nNY5fNR4Bw_331YeXxI-27" value="+ID_TicketSale: varchar&#xa;+ID_Seat: varchar" style="align=left;strokeColor=none;fillColor=none;spacingLeft=4;fontSize=30;verticalAlign=top;resizable=0;rotatable=0;part=1;shadow=1;strokeWidth=5;" parent="0nNY5fNR4Bw_331YeXxI-26" vertex="1">
          <mxGeometry y="40" width="370" height="200" as="geometry" />
        </mxCell>
        <mxCell id="0nNY5fNR4Bw_331YeXxI-28" value="&lt;font style=&quot;font-size: 30px;&quot;&gt;thuộc&lt;/font&gt;" style="shape=rhombus;perimeter=rhombusPerimeter;whiteSpace=wrap;html=1;align=center;strokeWidth=5;" parent="1" vertex="1">
          <mxGeometry x="240" y="5810" width="120" height="60" as="geometry" />
        </mxCell>
        <mxCell id="0nNY5fNR4Bw_331YeXxI-30" value="" style="endArrow=none;html=1;rounded=0;fontSize=30;exitX=0;exitY=0.5;exitDx=0;exitDy=0;entryX=1;entryY=0.5;entryDx=0;entryDy=0;strokeWidth=5;" parent="1" source="0nNY5fNR4Bw_331YeXxI-28" target="0nNY5fNR4Bw_331YeXxI-25" edge="1">
          <mxGeometry relative="1" as="geometry">
            <mxPoint x="304" y="5700" as="sourcePoint" />
            <mxPoint x="-170" y="5700" as="targetPoint" />
          </mxGeometry>
        </mxCell>
        <mxCell id="0nNY5fNR4Bw_331YeXxI-31" value="" style="endArrow=none;html=1;rounded=0;fontSize=30;entryX=1;entryY=0.5;entryDx=0;entryDy=0;exitX=0;exitY=0.5;exitDx=0;exitDy=0;strokeWidth=5;" parent="1" source="0nNY5fNR4Bw_331YeXxI-26" target="0nNY5fNR4Bw_331YeXxI-28" edge="1">
          <mxGeometry relative="1" as="geometry">
            <mxPoint x="864" y="5670" as="sourcePoint" />
            <mxPoint x="400" y="5670" as="targetPoint" />
          </mxGeometry>
        </mxCell>
        <mxCell id="0nNY5fNR4Bw_331YeXxI-32" value="&lt;span style=&quot;font-size: 30px;&quot;&gt;1&lt;/span&gt;" style="text;html=1;align=center;verticalAlign=middle;resizable=0;points=[];autosize=1;strokeColor=none;fillColor=none;" parent="1" vertex="1">
          <mxGeometry x="-234" y="5790" width="40" height="50" as="geometry" />
        </mxCell>
        <mxCell id="0nNY5fNR4Bw_331YeXxI-33" value="&lt;span style=&quot;font-size: 30px;&quot;&gt;N&lt;/span&gt;" style="text;html=1;align=center;verticalAlign=middle;resizable=0;points=[];autosize=1;strokeColor=none;fillColor=none;" parent="1" vertex="1">
          <mxGeometry x="780" y="5790" width="50" height="50" as="geometry" />
        </mxCell>
        <mxCell id="0nNY5fNR4Bw_331YeXxI-35" value="room" style="swimlane;childLayout=stackLayout;horizontal=1;startSize=30;horizontalStack=0;rounded=1;fontSize=30;fontStyle=0;strokeWidth=5;resizeParent=0;resizeLast=1;shadow=0;dashed=0;align=center;" parent="1" vertex="1">
          <mxGeometry x="-593" y="6070" width="352" height="250" as="geometry" />
        </mxCell>
        <mxCell id="0nNY5fNR4Bw_331YeXxI-36" value="+ID_Room: varchar&#xa;+RowOfChair: int&#xa;+ColumOfChair: int&#xa;+NumOfVIPChair: int&#xa;+NumOfCoupleChair:int&#xa;+Quantity: int" style="align=left;strokeColor=none;fillColor=none;spacingLeft=4;fontSize=30;verticalAlign=top;resizable=0;rotatable=0;part=1;shadow=1;strokeWidth=5;" parent="0nNY5fNR4Bw_331YeXxI-35" vertex="1">
          <mxGeometry y="30" width="352" height="220" as="geometry" />
        </mxCell>
        <mxCell id="0nNY5fNR4Bw_331YeXxI-37" value="showtime" style="swimlane;childLayout=stackLayout;horizontal=1;startSize=30;horizontalStack=0;rounded=1;fontSize=30;fontStyle=0;strokeWidth=5;resizeParent=0;resizeLast=1;shadow=0;dashed=0;align=center;" parent="1" vertex="1">
          <mxGeometry x="780" y="6045" width="470" height="300" as="geometry" />
        </mxCell>
        <mxCell id="0nNY5fNR4Bw_331YeXxI-38" value="+ID_ShoTime: varchar&#xa;+StartTime: date&#xa;+ID_Movie: varchar&#xa;+ID_Room: varchar&#xa;+MovieFormat: varchar&#xa;+IsDelete: bit&#xa;+TicketPrice: int" style="align=left;strokeColor=none;fillColor=none;spacingLeft=4;fontSize=30;verticalAlign=top;resizable=0;rotatable=0;part=1;shadow=1;strokeWidth=5;" parent="0nNY5fNR4Bw_331YeXxI-37" vertex="1">
          <mxGeometry y="30" width="470" height="270" as="geometry" />
        </mxCell>
        <mxCell id="0nNY5fNR4Bw_331YeXxI-39" value="&lt;font style=&quot;font-size: 30px;&quot;&gt;thuộc&lt;/font&gt;" style="shape=rhombus;perimeter=rhombusPerimeter;whiteSpace=wrap;html=1;align=center;strokeWidth=5;" parent="1" vertex="1">
          <mxGeometry x="210" y="6180" width="120" height="60" as="geometry" />
        </mxCell>
        <mxCell id="0nNY5fNR4Bw_331YeXxI-40" value="" style="endArrow=none;html=1;rounded=0;fontSize=30;exitX=0;exitY=0.5;exitDx=0;exitDy=0;entryX=1;entryY=0.5;entryDx=0;entryDy=0;strokeWidth=5;" parent="1" source="0nNY5fNR4Bw_331YeXxI-39" target="0nNY5fNR4Bw_331YeXxI-36" edge="1">
          <mxGeometry relative="1" as="geometry">
            <mxPoint x="324" y="6030" as="sourcePoint" />
            <mxPoint x="-150" y="6030" as="targetPoint" />
          </mxGeometry>
        </mxCell>
        <mxCell id="9Cr7IiBln4GG5xzIQ0BT-1" value="" style="endArrow=none;html=1;rounded=0;fontSize=30;exitX=0;exitY=0.5;exitDx=0;exitDy=0;entryX=1;entryY=0.5;entryDx=0;entryDy=0;strokeWidth=5;" parent="1" source="0nNY5fNR4Bw_331YeXxI-38" target="0nNY5fNR4Bw_331YeXxI-39" edge="1">
          <mxGeometry relative="1" as="geometry">
            <mxPoint x="512" y="6380" as="sourcePoint" />
            <mxPoint x="61" y="6380" as="targetPoint" />
          </mxGeometry>
        </mxCell>
        <mxCell id="9Cr7IiBln4GG5xzIQ0BT-2" value="&lt;span style=&quot;font-size: 30px;&quot;&gt;N&lt;/span&gt;" style="text;html=1;align=center;verticalAlign=middle;resizable=0;points=[];autosize=1;strokeColor=none;fillColor=none;" parent="1" vertex="1">
          <mxGeometry x="-240" y="6160" width="50" height="50" as="geometry" />
        </mxCell>
        <mxCell id="9Cr7IiBln4GG5xzIQ0BT-3" value="&lt;span style=&quot;font-size: 30px;&quot;&gt;1&lt;/span&gt;" style="text;html=1;align=center;verticalAlign=middle;resizable=0;points=[];autosize=1;strokeColor=none;fillColor=none;" parent="1" vertex="1">
          <mxGeometry x="740" y="6160" width="40" height="50" as="geometry" />
        </mxCell>
        <mxCell id="9Cr7IiBln4GG5xzIQ0BT-4" value="detail_ticket_sale" style="swimlane;childLayout=stackLayout;horizontal=1;startSize=40;horizontalStack=0;rounded=1;fontSize=30;fontStyle=0;strokeWidth=5;resizeParent=0;resizeLast=1;shadow=0;dashed=0;align=center;" parent="1" vertex="1">
          <mxGeometry x="-592" y="6460" width="370" height="240" as="geometry" />
        </mxCell>
        <mxCell id="9Cr7IiBln4GG5xzIQ0BT-5" value="+ID_TicketSale: varchar&#xa;+ID_Seat: varchar" style="align=left;strokeColor=none;fillColor=none;spacingLeft=4;fontSize=30;verticalAlign=top;resizable=0;rotatable=0;part=1;shadow=1;strokeWidth=5;" parent="9Cr7IiBln4GG5xzIQ0BT-4" vertex="1">
          <mxGeometry y="40" width="370" height="200" as="geometry" />
        </mxCell>
        <mxCell id="9Cr7IiBln4GG5xzIQ0BT-6" value="ticket_sale" style="swimlane;childLayout=stackLayout;horizontal=1;startSize=45;horizontalStack=0;rounded=1;fontSize=30;fontStyle=0;strokeWidth=5;resizeParent=0;resizeLast=1;shadow=0;dashed=0;align=center;" parent="1" vertex="1">
          <mxGeometry x="805" y="6445" width="370" height="270" as="geometry" />
        </mxCell>
        <mxCell id="9Cr7IiBln4GG5xzIQ0BT-7" value="+ID_ticket_sale: varchar&#xa;+sale_date: datetime&#xa;+total: int&#xa;+ID_Showtime: varchar&#xa;+ID_Customer: varchar&#xa;+ID_Staff: varchar" style="align=left;strokeColor=none;fillColor=none;spacingLeft=4;fontSize=30;verticalAlign=top;resizable=0;rotatable=0;part=1;shadow=1;strokeWidth=5;" parent="9Cr7IiBln4GG5xzIQ0BT-6" vertex="1">
          <mxGeometry y="45" width="370" height="225" as="geometry" />
        </mxCell>
        <mxCell id="9Cr7IiBln4GG5xzIQ0BT-8" value="&lt;font style=&quot;font-size: 30px;&quot;&gt;thuộc&lt;/font&gt;" style="shape=rhombus;perimeter=rhombusPerimeter;whiteSpace=wrap;html=1;align=center;strokeWidth=5;" parent="1" vertex="1">
          <mxGeometry x="230" y="6550" width="120" height="60" as="geometry" />
        </mxCell>
        <mxCell id="9Cr7IiBln4GG5xzIQ0BT-9" value="" style="endArrow=none;html=1;rounded=0;fontSize=30;exitX=0;exitY=0.5;exitDx=0;exitDy=0;entryX=0.995;entryY=0.426;entryDx=0;entryDy=0;strokeWidth=5;entryPerimeter=0;" parent="1" source="9Cr7IiBln4GG5xzIQ0BT-8" target="9Cr7IiBln4GG5xzIQ0BT-5" edge="1">
          <mxGeometry relative="1" as="geometry">
            <mxPoint x="340" y="6480" as="sourcePoint" />
            <mxPoint x="-111" y="6480" as="targetPoint" />
          </mxGeometry>
        </mxCell>
        <mxCell id="9Cr7IiBln4GG5xzIQ0BT-10" value="" style="endArrow=none;html=1;rounded=0;fontSize=30;exitX=1;exitY=0.5;exitDx=0;exitDy=0;entryX=0;entryY=0.5;entryDx=0;entryDy=0;strokeWidth=5;" parent="1" source="9Cr7IiBln4GG5xzIQ0BT-8" target="9Cr7IiBln4GG5xzIQ0BT-6" edge="1">
          <mxGeometry relative="1" as="geometry">
            <mxPoint x="220" y="6220" as="sourcePoint" />
            <mxPoint x="-231" y="6220" as="targetPoint" />
          </mxGeometry>
        </mxCell>
        <mxCell id="9Cr7IiBln4GG5xzIQ0BT-11" value="&lt;span style=&quot;font-size: 30px;&quot;&gt;N&lt;/span&gt;" style="text;html=1;align=center;verticalAlign=middle;resizable=0;points=[];autosize=1;strokeColor=none;fillColor=none;" parent="1" vertex="1">
          <mxGeometry x="-222" y="6530" width="50" height="50" as="geometry" />
        </mxCell>
        <mxCell id="9Cr7IiBln4GG5xzIQ0BT-12" value="&lt;span style=&quot;font-size: 30px;&quot;&gt;1&lt;/span&gt;" style="text;html=1;align=center;verticalAlign=middle;resizable=0;points=[];autosize=1;strokeColor=none;fillColor=none;" parent="1" vertex="1">
          <mxGeometry x="760" y="6530" width="40" height="50" as="geometry" />
        </mxCell>
        <mxCell id="T7hr7J7Lci3LLdRrN0Lu-1" value="ticket_sale" style="swimlane;childLayout=stackLayout;horizontal=1;startSize=45;horizontalStack=0;rounded=1;fontSize=30;fontStyle=0;strokeWidth=5;resizeParent=0;resizeLast=1;shadow=0;dashed=0;align=center;" vertex="1" parent="1">
          <mxGeometry x="-600" y="6840" width="370" height="270" as="geometry" />
        </mxCell>
        <mxCell id="T7hr7J7Lci3LLdRrN0Lu-2" value="+ID_ticket_sale: varchar&#xa;+sale_date: datetime&#xa;+total: int&#xa;+ID_Showtime: varchar&#xa;+ID_Customer: varchar&#xa;+ID_Staff: varchar" style="align=left;strokeColor=none;fillColor=none;spacingLeft=4;fontSize=30;verticalAlign=top;resizable=0;rotatable=0;part=1;shadow=1;strokeWidth=5;" vertex="1" parent="T7hr7J7Lci3LLdRrN0Lu-1">
          <mxGeometry y="45" width="370" height="225" as="geometry" />
        </mxCell>
        <mxCell id="T7hr7J7Lci3LLdRrN0Lu-3" value="showtime" style="swimlane;childLayout=stackLayout;horizontal=1;startSize=30;horizontalStack=0;rounded=1;fontSize=30;fontStyle=0;strokeWidth=5;resizeParent=0;resizeLast=1;shadow=0;dashed=0;align=center;" vertex="1" parent="1">
          <mxGeometry x="730" y="6825" width="470" height="300" as="geometry" />
        </mxCell>
        <mxCell id="T7hr7J7Lci3LLdRrN0Lu-4" value="+ID_ShoTime: varchar&#xa;+StartTime: date&#xa;+ID_Movie: varchar&#xa;+ID_Room: varchar&#xa;+MovieFormat: varchar&#xa;+IsDelete: bit&#xa;+TicketPrice: int" style="align=left;strokeColor=none;fillColor=none;spacingLeft=4;fontSize=30;verticalAlign=top;resizable=0;rotatable=0;part=1;shadow=1;strokeWidth=5;" vertex="1" parent="T7hr7J7Lci3LLdRrN0Lu-3">
          <mxGeometry y="30" width="470" height="270" as="geometry" />
        </mxCell>
        <mxCell id="T7hr7J7Lci3LLdRrN0Lu-5" value="&lt;font style=&quot;font-size: 30px;&quot;&gt;thuộc&lt;/font&gt;" style="shape=rhombus;perimeter=rhombusPerimeter;whiteSpace=wrap;html=1;align=center;strokeWidth=5;" vertex="1" parent="1">
          <mxGeometry x="190" y="6945" width="120" height="60" as="geometry" />
        </mxCell>
        <mxCell id="T7hr7J7Lci3LLdRrN0Lu-6" value="" style="endArrow=none;html=1;rounded=0;fontSize=30;exitX=0;exitY=0.5;exitDx=0;exitDy=0;entryX=0.996;entryY=0.415;entryDx=0;entryDy=0;strokeWidth=5;entryPerimeter=0;" edge="1" parent="1" source="T7hr7J7Lci3LLdRrN0Lu-5" target="T7hr7J7Lci3LLdRrN0Lu-2">
          <mxGeometry relative="1" as="geometry">
            <mxPoint x="240" y="6720" as="sourcePoint" />
            <mxPoint x="-214" y="6725" as="targetPoint" />
          </mxGeometry>
        </mxCell>
        <mxCell id="T7hr7J7Lci3LLdRrN0Lu-7" value="" style="endArrow=none;html=1;rounded=0;fontSize=30;exitX=1;exitY=0.5;exitDx=0;exitDy=0;entryX=0.004;entryY=0.444;entryDx=0;entryDy=0;strokeWidth=5;entryPerimeter=0;" edge="1" parent="1" source="T7hr7J7Lci3LLdRrN0Lu-5" target="T7hr7J7Lci3LLdRrN0Lu-4">
          <mxGeometry relative="1" as="geometry">
            <mxPoint x="360" y="6590" as="sourcePoint" />
            <mxPoint x="815" y="6590" as="targetPoint" />
          </mxGeometry>
        </mxCell>
        <mxCell id="T7hr7J7Lci3LLdRrN0Lu-8" value="&lt;span style=&quot;font-size: 30px;&quot;&gt;N&lt;/span&gt;" style="text;html=1;align=center;verticalAlign=middle;resizable=0;points=[];autosize=1;strokeColor=none;fillColor=none;" vertex="1" parent="1">
          <mxGeometry x="-230" y="6930" width="50" height="50" as="geometry" />
        </mxCell>
        <mxCell id="T7hr7J7Lci3LLdRrN0Lu-9" value="&lt;span style=&quot;font-size: 30px;&quot;&gt;1&lt;/span&gt;" style="text;html=1;align=center;verticalAlign=middle;resizable=0;points=[];autosize=1;strokeColor=none;fillColor=none;" vertex="1" parent="1">
          <mxGeometry x="690" y="6920" width="40" height="50" as="geometry" />
        </mxCell>
        <mxCell id="T7hr7J7Lci3LLdRrN0Lu-10" value="showtime" style="swimlane;childLayout=stackLayout;horizontal=1;startSize=30;horizontalStack=0;rounded=1;fontSize=30;fontStyle=0;strokeWidth=5;resizeParent=0;resizeLast=1;shadow=0;dashed=0;align=center;" vertex="1" parent="1">
          <mxGeometry x="-642" y="7365" width="470" height="300" as="geometry" />
        </mxCell>
        <mxCell id="T7hr7J7Lci3LLdRrN0Lu-11" value="+ID_ShoTime: varchar&#xa;+StartTime: date&#xa;+ID_Movie: varchar&#xa;+ID_Room: varchar&#xa;+MovieFormat: varchar&#xa;+IsDelete: bit&#xa;+TicketPrice: int" style="align=left;strokeColor=none;fillColor=none;spacingLeft=4;fontSize=30;verticalAlign=top;resizable=0;rotatable=0;part=1;shadow=1;strokeWidth=5;" vertex="1" parent="T7hr7J7Lci3LLdRrN0Lu-10">
          <mxGeometry y="30" width="470" height="270" as="geometry" />
        </mxCell>
        <mxCell id="T7hr7J7Lci3LLdRrN0Lu-12" value="movie" style="swimlane;childLayout=stackLayout;horizontal=1;startSize=30;horizontalStack=0;rounded=1;fontSize=35;fontStyle=0;strokeWidth=5;resizeParent=0;resizeLast=1;shadow=1;dashed=0;align=center;" vertex="1" parent="1">
          <mxGeometry x="760" y="7220" width="460" height="590" as="geometry" />
        </mxCell>
        <mxCell id="T7hr7J7Lci3LLdRrN0Lu-13" value="+ID_movie: varchar&#xa;+Name: nvarchar&#xa;+Time: int &#xa;+Age_limit: int&#xa;+Opening_date: date&#xa;+Language: nvarchar&#xa;+Country: nvarchar&#xa;+Director: nvarchar&#xa;+Content: nvarchar;&#xa;+TypeMovie: nvarchar&#xa;+Producer: nvarchar&#xa;+IsShowing: bit&#xa;+ImageLink: varchar" style="align=left;strokeColor=none;fillColor=none;spacingLeft=4;fontSize=35;verticalAlign=top;resizable=0;rotatable=0;part=1;shadow=1;strokeWidth=5;" vertex="1" parent="T7hr7J7Lci3LLdRrN0Lu-12">
          <mxGeometry y="30" width="460" height="560" as="geometry" />
        </mxCell>
        <mxCell id="T7hr7J7Lci3LLdRrN0Lu-14" value="&lt;font style=&quot;font-size: 30px;&quot;&gt;thuộc&lt;/font&gt;" style="shape=rhombus;perimeter=rhombusPerimeter;whiteSpace=wrap;html=1;align=center;strokeWidth=5;" vertex="1" parent="1">
          <mxGeometry x="230" y="7485" width="120" height="60" as="geometry" />
        </mxCell>
        <mxCell id="T7hr7J7Lci3LLdRrN0Lu-15" value="" style="endArrow=none;html=1;rounded=0;fontSize=30;exitX=0;exitY=0.5;exitDx=0;exitDy=0;entryX=1.003;entryY=0.447;entryDx=0;entryDy=0;strokeWidth=5;entryPerimeter=0;" edge="1" parent="1" source="T7hr7J7Lci3LLdRrN0Lu-14" target="T7hr7J7Lci3LLdRrN0Lu-11">
          <mxGeometry relative="1" as="geometry">
            <mxPoint x="251" y="7270" as="sourcePoint" />
            <mxPoint x="-170" y="7273" as="targetPoint" />
          </mxGeometry>
        </mxCell>
        <mxCell id="T7hr7J7Lci3LLdRrN0Lu-16" value="" style="endArrow=none;html=1;rounded=0;fontSize=30;exitX=1;exitY=0.5;exitDx=0;exitDy=0;strokeWidth=5;" edge="1" parent="1" source="T7hr7J7Lci3LLdRrN0Lu-14">
          <mxGeometry relative="1" as="geometry">
            <mxPoint x="320" y="6985" as="sourcePoint" />
            <mxPoint x="760" y="7515" as="targetPoint" />
          </mxGeometry>
        </mxCell>
        <mxCell id="T7hr7J7Lci3LLdRrN0Lu-17" value="&lt;span style=&quot;font-size: 30px;&quot;&gt;N&lt;/span&gt;" style="text;html=1;align=center;verticalAlign=middle;resizable=0;points=[];autosize=1;strokeColor=none;fillColor=none;" vertex="1" parent="1">
          <mxGeometry x="-172" y="7470" width="50" height="50" as="geometry" />
        </mxCell>
        <mxCell id="T7hr7J7Lci3LLdRrN0Lu-19" value="&lt;span style=&quot;font-size: 30px;&quot;&gt;1&lt;/span&gt;" style="text;html=1;align=center;verticalAlign=middle;resizable=0;points=[];autosize=1;strokeColor=none;fillColor=none;" vertex="1" parent="1">
          <mxGeometry x="720" y="7460" width="40" height="50" as="geometry" />
        </mxCell>
        <mxCell id="T7hr7J7Lci3LLdRrN0Lu-20" value="ticket_sale" style="swimlane;childLayout=stackLayout;horizontal=1;startSize=45;horizontalStack=0;rounded=1;fontSize=30;fontStyle=0;strokeWidth=5;resizeParent=0;resizeLast=1;shadow=0;dashed=0;align=center;" vertex="1" parent="1">
          <mxGeometry x="-602" y="8060" width="370" height="270" as="geometry" />
        </mxCell>
        <mxCell id="T7hr7J7Lci3LLdRrN0Lu-21" value="+ID_ticket_sale: varchar&#xa;+sale_date: datetime&#xa;+total: int&#xa;+ID_Showtime: varchar&#xa;+ID_Customer: varchar&#xa;+ID_Staff: varchar" style="align=left;strokeColor=none;fillColor=none;spacingLeft=4;fontSize=30;verticalAlign=top;resizable=0;rotatable=0;part=1;shadow=1;strokeWidth=5;" vertex="1" parent="T7hr7J7Lci3LLdRrN0Lu-20">
          <mxGeometry y="45" width="370" height="225" as="geometry" />
        </mxCell>
        <mxCell id="T7hr7J7Lci3LLdRrN0Lu-22" value="staff" style="swimlane;childLayout=stackLayout;horizontal=1;startSize=30;horizontalStack=0;rounded=1;fontSize=30;fontStyle=0;strokeWidth=5;resizeParent=0;resizeLast=1;shadow=0;dashed=0;align=center;" vertex="1" parent="1">
          <mxGeometry x="805" y="7885" width="370" height="620" as="geometry" />
        </mxCell>
        <mxCell id="T7hr7J7Lci3LLdRrN0Lu-23" value="+ID_Staff: varchar&#xa;+fullName: nvarchar&#xa;+password: varchar&#xa;+ID_Person: varchar&#xa;+phoneNumber: varchar&#xa;+email: varchar&#xa;+address: nvarchar&#xa;+startDate: date&#xa;+sex: bit&#xa;+isWorking: bit&#xa;+taskName: nvarchar&#xa;+isDelete&#xa;+birthDate&#xa;+NumOfDayWorked&#xa;+SalaryDay&#xa;+Account" style="align=left;strokeColor=none;fillColor=none;spacingLeft=4;fontSize=30;verticalAlign=top;resizable=0;rotatable=0;part=1;shadow=1;strokeWidth=5;" vertex="1" parent="T7hr7J7Lci3LLdRrN0Lu-22">
          <mxGeometry y="30" width="370" height="590" as="geometry" />
        </mxCell>
        <mxCell id="T7hr7J7Lci3LLdRrN0Lu-24" value="&lt;font style=&quot;font-size: 30px;&quot;&gt;thuộc&lt;/font&gt;" style="shape=rhombus;perimeter=rhombusPerimeter;whiteSpace=wrap;html=1;align=center;strokeWidth=5;" vertex="1" parent="1">
          <mxGeometry x="230" y="8165" width="120" height="60" as="geometry" />
        </mxCell>
        <mxCell id="T7hr7J7Lci3LLdRrN0Lu-25" value="" style="endArrow=none;html=1;rounded=0;fontSize=30;exitX=0;exitY=0.5;exitDx=0;exitDy=0;entryX=1;entryY=0.5;entryDx=0;entryDy=0;strokeWidth=5;" edge="1" parent="1" source="T7hr7J7Lci3LLdRrN0Lu-24" target="T7hr7J7Lci3LLdRrN0Lu-20">
          <mxGeometry relative="1" as="geometry">
            <mxPoint x="207" y="8030" as="sourcePoint" />
            <mxPoint x="-194" y="8031" as="targetPoint" />
          </mxGeometry>
        </mxCell>
        <mxCell id="T7hr7J7Lci3LLdRrN0Lu-26" value="" style="endArrow=none;html=1;rounded=0;fontSize=30;exitX=1;exitY=0.5;exitDx=0;exitDy=0;strokeWidth=5;entryX=0.001;entryY=0.478;entryDx=0;entryDy=0;entryPerimeter=0;" edge="1" parent="1" source="T7hr7J7Lci3LLdRrN0Lu-24" target="T7hr7J7Lci3LLdRrN0Lu-23">
          <mxGeometry relative="1" as="geometry">
            <mxPoint x="360" y="7525" as="sourcePoint" />
            <mxPoint x="770" y="7525" as="targetPoint" />
          </mxGeometry>
        </mxCell>
        <mxCell id="T7hr7J7Lci3LLdRrN0Lu-27" value="&lt;span style=&quot;font-size: 30px;&quot;&gt;N&lt;/span&gt;" style="text;html=1;align=center;verticalAlign=middle;resizable=0;points=[];autosize=1;strokeColor=none;fillColor=none;" vertex="1" parent="1">
          <mxGeometry x="-234" y="8150" width="50" height="50" as="geometry" />
        </mxCell>
        <mxCell id="T7hr7J7Lci3LLdRrN0Lu-28" value="&lt;span style=&quot;font-size: 30px;&quot;&gt;1&lt;/span&gt;" style="text;html=1;align=center;verticalAlign=middle;resizable=0;points=[];autosize=1;strokeColor=none;fillColor=none;" vertex="1" parent="1">
          <mxGeometry x="765" y="8150" width="40" height="50" as="geometry" />
        </mxCell>
        <mxCell id="T7hr7J7Lci3LLdRrN0Lu-29" value="ticket_sale" style="swimlane;childLayout=stackLayout;horizontal=1;startSize=45;horizontalStack=0;rounded=1;fontSize=30;fontStyle=0;strokeWidth=5;resizeParent=0;resizeLast=1;shadow=0;dashed=0;align=center;" vertex="1" parent="1">
          <mxGeometry x="-590" y="8682.5" width="370" height="270" as="geometry" />
        </mxCell>
        <mxCell id="T7hr7J7Lci3LLdRrN0Lu-30" value="+ID_ticket_sale: varchar&#xa;+sale_date: datetime&#xa;+total: int&#xa;+ID_Showtime: varchar&#xa;+ID_Customer: varchar&#xa;+ID_Staff: varchar" style="align=left;strokeColor=none;fillColor=none;spacingLeft=4;fontSize=30;verticalAlign=top;resizable=0;rotatable=0;part=1;shadow=1;strokeWidth=5;" vertex="1" parent="T7hr7J7Lci3LLdRrN0Lu-29">
          <mxGeometry y="45" width="370" height="225" as="geometry" />
        </mxCell>
        <mxCell id="T7hr7J7Lci3LLdRrN0Lu-31" value="customer" style="swimlane;childLayout=stackLayout;horizontal=1;startSize=45;horizontalStack=0;rounded=1;fontSize=30;fontStyle=0;strokeWidth=5;resizeParent=0;resizeLast=1;shadow=0;dashed=0;align=center;" vertex="1" parent="1">
          <mxGeometry x="790" y="8560" width="400" height="515" as="geometry" />
        </mxCell>
        <mxCell id="T7hr7J7Lci3LLdRrN0Lu-32" value="+ID_customer: varchar [10]&#xa;+name: nvarchar[50]&#xa;+password: varchar[30]&#xa;+phone_number: varchar[10]&#xa;+email: varchar[50]&#xa;+birthDate: date&#xa;+sex: bit&#xa;+isSavePw: bit&#xa;+ID_Person: varchar&#xa;+address: nvarchar&#xa;+account: varchar&#xa;+startDate: date&#xa;+isDelete: bit" style="align=left;strokeColor=none;fillColor=none;spacingLeft=4;fontSize=30;verticalAlign=top;resizable=0;rotatable=0;part=1;shadow=1;strokeWidth=5;" vertex="1" parent="T7hr7J7Lci3LLdRrN0Lu-31">
          <mxGeometry y="45" width="400" height="470" as="geometry" />
        </mxCell>
        <mxCell id="T7hr7J7Lci3LLdRrN0Lu-33" value="&lt;font style=&quot;font-size: 30px;&quot;&gt;thuộc&lt;/font&gt;" style="shape=rhombus;perimeter=rhombusPerimeter;whiteSpace=wrap;html=1;align=center;strokeWidth=5;" vertex="1" parent="1">
          <mxGeometry x="230" y="8787.5" width="120" height="60" as="geometry" />
        </mxCell>
        <mxCell id="T7hr7J7Lci3LLdRrN0Lu-34" value="" style="endArrow=none;html=1;rounded=0;fontSize=30;exitX=0;exitY=0.5;exitDx=0;exitDy=0;entryX=1;entryY=0.5;entryDx=0;entryDy=0;strokeWidth=5;" edge="1" parent="1" source="T7hr7J7Lci3LLdRrN0Lu-33" target="T7hr7J7Lci3LLdRrN0Lu-29">
          <mxGeometry relative="1" as="geometry">
            <mxPoint x="201" y="8390" as="sourcePoint" />
            <mxPoint x="-261" y="8390" as="targetPoint" />
          </mxGeometry>
        </mxCell>
        <mxCell id="T7hr7J7Lci3LLdRrN0Lu-35" value="" style="endArrow=none;html=1;rounded=0;fontSize=30;exitX=1;exitY=0.5;exitDx=0;exitDy=0;strokeWidth=5;entryX=-0.003;entryY=0.455;entryDx=0;entryDy=0;entryPerimeter=0;" edge="1" parent="1" source="T7hr7J7Lci3LLdRrN0Lu-33" target="T7hr7J7Lci3LLdRrN0Lu-32">
          <mxGeometry relative="1" as="geometry">
            <mxPoint x="265" y="8600" as="sourcePoint" />
            <mxPoint x="720" y="8602" as="targetPoint" />
          </mxGeometry>
        </mxCell>
        <mxCell id="T7hr7J7Lci3LLdRrN0Lu-36" value="&lt;span style=&quot;font-size: 30px;&quot;&gt;N&lt;/span&gt;" style="text;html=1;align=center;verticalAlign=middle;resizable=0;points=[];autosize=1;strokeColor=none;fillColor=none;" vertex="1" parent="1">
          <mxGeometry x="-220" y="8770" width="50" height="50" as="geometry" />
        </mxCell>
        <mxCell id="T7hr7J7Lci3LLdRrN0Lu-37" value="&lt;span style=&quot;font-size: 30px;&quot;&gt;1&lt;/span&gt;" style="text;html=1;align=center;verticalAlign=middle;resizable=0;points=[];autosize=1;strokeColor=none;fillColor=none;" vertex="1" parent="1">
          <mxGeometry x="750" y="8770" width="40" height="50" as="geometry" />
        </mxCell>
        <mxCell id="T7hr7J7Lci3LLdRrN0Lu-38" value="&lt;font style=&quot;font-size: 30px;&quot;&gt;thuộc&lt;/font&gt;" style="shape=rhombus;perimeter=rhombusPerimeter;whiteSpace=wrap;html=1;align=center;strokeWidth=5;" vertex="1" parent="1">
          <mxGeometry x="930" y="2540" width="120" height="60" as="geometry" />
        </mxCell>
        <mxCell id="T7hr7J7Lci3LLdRrN0Lu-39" value="" style="endArrow=none;html=1;rounded=0;fontSize=30;strokeWidth=5;entryX=0.5;entryY=0;entryDx=0;entryDy=0;exitX=0.5;exitY=1;exitDx=0;exitDy=0;" edge="1" parent="1" source="B4JVpBIQNOr2g5kr9Hof-7" target="T7hr7J7Lci3LLdRrN0Lu-38">
          <mxGeometry relative="1" as="geometry">
            <mxPoint x="1173.33" y="2365" as="sourcePoint" />
            <mxPoint x="1173.33" y="2510" as="targetPoint" />
          </mxGeometry>
        </mxCell>
        <mxCell id="T7hr7J7Lci3LLdRrN0Lu-41" value="staff" style="swimlane;childLayout=stackLayout;horizontal=1;startSize=30;horizontalStack=0;rounded=1;fontSize=30;fontStyle=0;strokeWidth=5;resizeParent=0;resizeLast=1;shadow=0;dashed=0;align=center;" vertex="1" parent="1">
          <mxGeometry x="1575" y="4870" width="370" height="620" as="geometry" />
        </mxCell>
        <mxCell id="T7hr7J7Lci3LLdRrN0Lu-42" value="+ID_Staff: varchar&#xa;+fullName: nvarchar&#xa;+password: varchar&#xa;+ID_Person: varchar&#xa;+phoneNumber: varchar&#xa;+email: varchar&#xa;+address: nvarchar&#xa;+startDate: date&#xa;+sex: bit&#xa;+isWorking: bit&#xa;+taskName: nvarchar&#xa;+isDelete&#xa;+birthDate&#xa;+NumOfDayWorked&#xa;+SalaryDay&#xa;+Account" style="align=left;strokeColor=none;fillColor=none;spacingLeft=4;fontSize=30;verticalAlign=top;resizable=0;rotatable=0;part=1;shadow=1;strokeWidth=5;" vertex="1" parent="T7hr7J7Lci3LLdRrN0Lu-41">
          <mxGeometry y="30" width="370" height="590" as="geometry" />
        </mxCell>
      </root>
    </mxGraphModel>
  </diagram>
</mxfile>
